<svg xmlns="http://www.w3.org/2000/svg" width="128" height="89.55" viewBox="0 0 128 89.55"><path d="M67.91,55.56c-.73-2.57.27,1.26.71,2.95.59,2.24,1.26,4.86,1.56,5.5C69.56,61.71,68.57,58,67.91,55.56Zm13.56-24.8c.13-2.36.25-7.12.65-9.06C81.9,24.72,81.61,28.74,81.47,30.76Zm-.36,5.71c.07-3.22.39-4.48,0,0Zm2-29.89c0,.29,0,.32-.08.34C82.84,11.85,82.78,6.94,83.16,6.58Zm0-2c-.11-.7.32-3.67.21-4.37H76.12c0,.12,0,.11-.06,0l7.41,0C83.52.74,83.24,4.24,83.19,4.56Zm-5.39,11c-.26-.21-.28-3-.44-4.35C77.36,9.66,77.63,15,77.8,15.58ZM55.5,41.44a8,8,0,0,1,1,2.12C56.55,43.74,56.3,42.93,55.5,41.44Zm-2,3.54a11.71,11.71,0,0,1,1.22-2.45C54.81,42.49,54.4,43.13,53.51,45ZM37.7,47.27c2.62-.18,7,0,12.28,0a1.81,1.81,0,0,0,1.69-1.16v0c.3-.77.67-1.64,1.07-2.46-.27.62-.66,1.51-1,2.48A1.84,1.84,0,0,1,50,47.27ZM80.81,24.13c.07.26.16.35.25.32l.16,2C80.92,26.2,81,25.13,80.81,24.13Zm.83,1.29a39.93,39.93,0,0,1,.48,4C81.78,28.64,81.89,27.32,81.64,25.42Zm4,49.65c-.11.07-.11-1.19-.18-1.67.12.13.2.71.33.65C85.87,75.12,85.69,74.69,85.68,75.07Zm-.23-2.34a7.36,7.36,0,0,0,0-1c.13-.25.16.66.27.66C85.7,73,85.57,73.25,85.45,72.73ZM83.58,47.21c.17.75.33,2.59.58,4a4.76,4.76,0,0,0-.38-1.32C83.73,48.58,83.51,48,83.58,47.21Zm2.26,29.2c.06.17.12.34.19.32-.2.63.68,4.48.12,3.71C86.34,79.27,85.71,77.46,85.84,76.41Zm-1.9-25.17a16.57,16.57,0,0,1,.29,2.34A8.81,8.81,0,0,1,83.94,51.24ZM85.24,64c-.14-1.27.23-.44.34-.7C85.65,64.27,85.34,64.36,85.24,64Zm.18,21.4A14.35,14.35,0,0,0,85.65,82a4.83,4.83,0,0,0,.26-1.67c.18-.22,0,.68.14.7C85.68,82.71,85.82,84.93,85.42,85.36Zm1.7-.27c0-.37.09-.24.06-.68.12.32.17,1.41.26,2l-2.25,0a1.58,1.58,0,0,0,0-.35c.13-.48.16-.15.14.36l2,0a8.14,8.14,0,0,1-.09-1.34Zm-1-5.41-.16,0c.08-.59.14-1.68.27-1.32C86.18,78.94,86.24,79.05,86.15,79.68ZM86.5,74c.16-.69.15,1.56,0,2C86.31,75.93,86.54,74.49,86.5,74Zm-.11,1.34c0,.29-.06.32-.09.33a3.24,3.24,0,0,1,0,1.7c-.14,0,.11-1.44-.16-1C86.22,75.62,86.3,75.25,86.39,75.3Zm.78-6c-.16.52-.12,1.4-.32,2.67-.09-1.07.13-2.38,0-3C87.07,68,87.14,69.05,87.17,69.3Zm1.48-21.86c-.06.59-.39.56-.19-.36,0,.07,0,.34.08.34.28-1.5-.17-.48,0-1.69.08.56.1,0,.15-.7A2.4,2.4,0,0,1,91,42.81h.23a11.28,11.28,0,0,1,1.3,0l-1.3.11-.33,0A2.29,2.29,0,0,0,88.82,45C88.75,46,88.7,46.7,88.65,47.44Zm-74.51.33c-3-.14-10.23,0-14.14-.22H13.46a11.2,11.2,0,0,0-2-.06L50,47.44a2,2,0,0,0,1.89-1.31c.27-.7.66-1.6,1.07-2.45s.1-.6.23-.94a14,14,0,0,1,1.71-2.57,5.33,5.33,0,0,1,.43-.41l.19-.14s0,0-.07,0,.07,0,.21-.12l.18-.24,0,0h0l-.24,0h0v.11c-.07.19,0,.2,0,.2-.28.15.1.41.35,1s.13-.33.47.31c.1-.08-.27-.72-.62-1,1.06,1,2.11,3.61,2.78,6v0a1.77,1.77,0,0,0,1.71,1.29l9.16,0-1.68-1.29c1.54,5.81,3.19,12.07,4.81,18.21.17.19.47,2,.59,1.59.07.37.14.73.2,1.06a1.57,1.57,0,0,0,3.09-.08l0-.2c.6-4.53.57-8.85,1-13.69-.23.72.12-1.24,0-2.36.06-.86.08-.41.14-.33,1.23-18,2.54-36.91,3.23-50.06H78.59c.11,1.18.2,2.11.29,3,.1,2.71.32,5.68.77,9.39.45,6,.87,12.68,1.7,18.1-.08.13-.12-.25-.16-.66.14,2.73.51,7.39.87,10.74.06.74.11-.45.28,0a17.28,17.28,0,0,0,.23,2.34c-.07,1.54-.15-1.93-.32-1.33a52.4,52.4,0,0,0,.67,6.71c.57,10.18,2,22.22,2.6,29.84.19.59,0-1.48.14-.35,0,.58.09.63.16.67.06,1.24-.17-.13-.22.69.31,3.11.53,5.35.73,7.36h0c.21-2.2.37-4.09.49-6.39.12.79.08-.58.23-1a28.13,28.13,0,0,1,.13-4.39c.2-.06-.14,2.13-.08,3A130.42,130.42,0,0,0,88.2,64c-.28.31-.17,2.05-.41,2a41.09,41.09,0,0,1,.59-6.37c.05.09,0,.67,0,.68s.36-3.72,0-3.72c.36-1.6.42-3,.12-3.38a17.58,17.58,0,0,1,.55-2.64c0-.39-.15.06,0-1a23.57,23.57,0,0,0-.71,5c0,.64.12-.18.28,0-.22,1.44-.24.25-.48,1.63-.26,2.62-.08,2.7-.42,5.38-.31-.75.18-3.79.35-5.72,0-.54,0-2.44,0-2.38-.06-.5.14-.69.2-.31.31-3.16,0-3.24-.12-3.74.18-1,.31-1.09.42-.63.11-1.21.23-2.47.34-3.74a2.24,2.24,0,0,1,2.17-2h.12c1.89-.05,3.6-.14,4-.51a3.82,3.82,0,0,0,1,.11c.57-.28,2.7.06,3.36-.34a16.27,16.27,0,0,0,3.56,0l-2.45,1.24.8-1.26.23.17c1.15-1.65,2-3,3-4.49-.84.7-1.77,2.63-2.92,4.12,2.34-3.81,4.66-7.27,7.31-11.25a3.72,3.72,0,0,1,5.17-1,3.64,3.64,0,0,1,.82.74l.27.33,1.33,1.64c-.5-.58-1-1.1-1.38-1.6l-.38-.43a3.65,3.65,0,0,0-5.78.4l-4.37,6.71c.59-.55.9-1.42,1.45-1.85.62-1.13,1.94-3.18,3-4.77a3.59,3.59,0,0,1,5-.9,3.88,3.88,0,0,1,.78.73l.15.2c.65.83,1.17,1.55,1.44,2,.89.7,2.72,3.17,4.61,5.38.6,1-.69-.72-.78-.68s1.08,1.19.7,1.15c-.93-1.26-.94-1.16-1.09-1.7-.22.14-.58-.72-.82-.65-.45-.56-.32-.56-.26-.64-.27-.1-.5-.1-1.18-1.23-.21.26,1.78,2.62,2,2.69a40.94,40.94,0,0,0,3.26,4.29c.42.6.31.66.17.71a3.51,3.51,0,0,1,.69,1l-2.85-1.45c.64.08,1.21.21.8.31,2.16.21,2.62.11,4.38.28-1,.15.29.07-.67.28a10.55,10.55,0,0,0,2,.29c.25.24-1.08.23-1.34.39,1.45,0-.48.25,1.68.17-.51.14-1.55.22,0,.28.25.21-1.28.12-1.34.28s1,.25,1,.45-.61.12-.33.28c-1.9.23-4,.43-6.19.62a.11.11,0,0,1-.08,0h0c-3-3.47-6.31-7.46-9.64-11.65h1.69l-.14.21L104.5,46.32a1.55,1.55,0,0,1-1.2.66h-.14l-11.93.43,2.08-1.84L92.2,58c-.83,8.29-1.77,17.71-2.62,26.13-.1,1-.21,2-.27,2.69a3,3,0,0,1-6,0v-.08C80.88,59,79.46,42.86,76.58,9.93c-.26-3.1-.54-6.35-.82-9.71h8c-.71,11.38-1.46,23.76-2.31,34.6-.51,6.41,0-1.06.05-2.36C82.26,21.11,82.9,11.3,83.62.19L75.9.21c.22,2.44.47,5.18.72,8-.05-1.67-.3-4.91-.53-7,1.25,11.73,2.32,26.37,3.37,38.57a16.24,16.24,0,0,1-.32-2.68c.19,4.65.74,8.24,1.1,13.76.14-1.5-.31-3.63-.45-6.72a5.46,5.46,0,0,1-.05-1.34l.1,1.34C81,55.37,81.89,67.18,83,77.3c-.59-7.46-1.18-16.1-2.21-24.81.07.2.13.4.11,0Q79.88,41,79,30.68c.87,9.41,1.74,18.73,2.69,28.83-.24-4.91-.89-10.18-1.3-16.44,0-.72-.13-.64-.22-.66-.18-4.41-.6-8.86-.94-13.1-.81-10-1.6-19.68-2.37-29.18h5.8c-1.41,21-2.81,41.8-4.47,66.43a3.24,3.24,0,0,1-6.37.61v0l-.28-1c-.38-1.47-.74-2.86-1.27-4.89-.43-1.57-.75-3.3-1.17-4.91-.9-3.44-2.07-7.06-2.7-10.07l3.11,2.41c-.61,0-1.17-.08-1.7-.14-1.21,0-4.06,0-2.69,0l4.39-.08-2.86-2.2c.93,3.57,1.78,6.85,2.53,9.76,1,3.79,2,7.55,3,11.13v0a2.92,2.92,0,0,0,5.74-.55c.93-13.41,1.81-26.19,2.65-38.2-1.16,12.88-1.81,26.5-2.71,38.2v0a2.86,2.86,0,0,1-5.63.49c-.09-.38-.18-.72-.27-1l-4.36-17-.73-2.93,2.68,2.07-9.16-.07a2.73,2.73,0,0,1-2.62-2,23.59,23.59,0,0,0-1.44-4,8.32,8.32,0,0,0-.9-1.49l-.18-.19c0-.07-.16.09,0-.2.43-.5.33-1.17.44-.74l-.25.33a1.25,1.25,0,0,0,.28.55c.18.25.23.05.28.05l-.07.06a3.26,3.26,0,0,0-.44.43,10.66,10.66,0,0,0-1.08,1.57,27.7,27.7,0,0,0-1.86,3.93v0A2.76,2.76,0,0,1,50,48.15c-12.95,0-26,.09-38.87-.21C12.43,47.8,13.49,47.82,14.14,47.77Zm63-33.15a36.4,36.4,0,0,0,.47,4.69C77.44,17.68,76.91,10.7,77.16,14.62ZM79,36.09a91.25,91.25,0,0,0-.79-9.73C78.45,29.88,78.66,32.46,79,36.09ZM82,63.2l.18,2.35a43.55,43.55,0,0,0-.49-5.71C81.84,61.57,81.92,62.48,82,63.2ZM55.17,40c-.1.18.52-.24.35-.15a.19.19,0,0,1-.1,0l.2-.24.21-.27,0,0h0l-.24,0h0v.11c0,.1-.13.37-.08.29s.11-.24.08-.4h0l.24,0h0l0,0-.05.07-.1.12c-.07.07-.12.21-.2.18s.06.06.08,0A1.6,1.6,0,0,0,55.17,40Zm33.69,8.52c.17,0,.3-.68.46-1l.2-1.67c-.08-.05-.09-.35-.07-.73A1.65,1.65,0,0,1,91,43.54h.23l1.3-.07c.11.13.66.24,0,.34.73-.18,1.83-.38,1-.51.67.12.77-.06,1.35-.11-.42,0-4,0-1.68.11-.78,0-1.41,0-2,0h-.12a2,2,0,0,0-1.92,1.8C89.09,46.23,89.07,47.14,88.86,48.48Zm12.93-5.19c.49-1.52,4.66-6.51,4.27-6.89a13.26,13.26,0,0,1-1.6,2.17c.41,0-.67,1-.78,1.52-.27.35-.26.18-.49.47a10.55,10.55,0,0,1-1.52,2.23,2.67,2.67,0,0,1-.56,1l2-1a24.57,24.57,0,0,0-2.55.07V43c.21,0,.4,0,.34,0,.89,0,1.19-.19,2.21-.22l-2,1,.08-.12C101.3,43.76,101.81,43,101.79,43.29Zm-1.85-.73c-1.51,0-4.66.08-4,.28C97.16,42.74,99.17,42.75,99.94,42.56Zm1.55.09c-.16.18-.43.53-.71.91l2.38-1.2a5.45,5.45,0,0,0-1.88.2c.42-.05,1.21,0,1.88-.05l-2.26,1.14A3,3,0,0,0,101.49,42.65Zm14.62-9.76c.82,1.18.85.51.18-.13,0-.07,0-.16-.3-.61C115.8,32.18,116.29,32.87,116.11,32.89Zm-8.38,1c.25-.32.49-.63.49-.47a22.46,22.46,0,0,0,1.45-2.18,3,3,0,0,1,4.08-1,2.85,2.85,0,0,1,.67.57l.38.43c.33.38.68.78,1.11,1.37,0-.17,0-.42-.36-1a5.87,5.87,0,0,1-.58-.51l-.82-.8a2.92,2.92,0,0,0-4.13.05,3,3,0,0,0-.51.72,5.07,5.07,0,0,1-1.16,1.56c.06.1,0,.29-.22.67A1.31,1.31,0,0,0,107.73,33.87ZM82.2,20.69c-.08-3.11.41-6.69.56-10.09C82.87,12,82.25,17.86,82.2,20.69ZM86,77.63c.4-.92-.14,1.82-.19,3,0-.23,0-.78-.09-.69A7.39,7.39,0,0,0,86,77.63Zm1.15-11c.16-.88,0-2.6.46-3.33a8.86,8.86,0,0,0-.1,2.7,5.56,5.56,0,0,0-.31,1.65,3.85,3.85,0,0,0-.1-1C87.15,66.2,87.17,66.4,87.15,66.58Zm-.3.64c.06.13,0,.6.09.69a4.79,4.79,0,0,0-.26,1.67C86.49,69.37,86.83,68.27,86.85,67.22Z" style="fill:#eee;fill-rule:evenodd"/><path d="M43.59,6.68c1.54.21-.71-.2-1.83-.28a12.73,12.73,0,0,0-3.1,0A37,37,0,0,1,43.59,6.68ZM19.33,16.82l-.53.89-.15.26-.23.39c-.11.22-.23.44-.34.64a20.16,20.16,0,0,1-1.25,2.15c.38-.78.82-1.68,1.3-2.47.11-.2.23-.39.34-.58l.36-.55Zm2-2.65c-1.06,1.5-1.71,1.9,0,0ZM14.69,29.5c0-.16,0-.17.07-.18C15,26.51,15.05,29.32,14.69,29.5Zm0,1.15c.13.4-.07,2.08.13,2.46C14.69,33.59,14.66,30.88,14.73,30.65ZM17,41.19c-.27,0-.53-1.52-.75-2.19S16.71,40.92,17,41.19ZM55.58,13.61c-1.45-1.06-1.83-1.71,0,0Zm4,4.83c-1.29-1.57-1.32-2.05,0,0Zm-1,3.45c-.18.5-.45,1.1-.78,1.8l3.13-.11a41.75,41.75,0,0,0-2.71-4.87,15.47,15.47,0,0,1,1.37,2.12c.44.85.95,1.81,1.42,2.71l-3.29.12ZM20.75,44.48c.1.1.19.11.27.06l.44.89C21.15,45.43,21.09,44.88,20.75,44.48Zm.94.29c.27.12.7,1.23,1.06,1.64C22.31,46.21,22.18,45.56,21.69,44.77ZM37.75,62.45c-.07.11-.44-.37-.64-.51.13,0,.36.14.43,0C37.9,62.34,37.64,62.3,37.75,62.45Zm-.88-.73a1.59,1.59,0,0,0-.32-.37c0-.19.32.14.4.06C37.12,61.63,37.12,61.83,36.87,61.72ZM28,53.17c.34.19,1,.82,1.54,1.21-.23-.13-.49-.3-.65-.27C28.48,53.62,28.14,53.52,28,53.17Zm10.27,9.68c.1,0,.19,0,.24,0,0,.38,1.84,1.23,1.2,1.33C39.48,63.6,38.49,63.34,38.26,62.85Zm-8.89-8.32a3.85,3.85,0,0,1,.88.72C30.08,55.28,29.46,54.72,29.37,54.53Zm4.71,4c-.49-.39,0-.33,0-.51C34.46,58.36,34.27,58.61,34.08,58.53ZM42.71,66c.18.22,1.11,1.07,1.31,1,.09.26.17.3.56.59,0,.19-.32-.14-.4-.06C43.69,66.79,42.63,66.37,42.71,66Zm-.92-.69c-.12-.13,0-.16-.16-.31.23.05.75.64.95.65.23.39-.52-.11-.71-.42Zm2.91,2.6.11-.12c.21.2.64.51.4.52C45,68.07,44.92,68.09,44.7,67.87ZM47,69.5c.2.29-.77-.26-.87-.5C46.23,68.89,46.71,69.4,47,69.5Zm-.52-.4c-.1-.09-.09-.12-.08-.15-.25-.12-.52,0-.75-.39.11-.1.55.43.55.13C46.42,68.89,46.53,69,46.44,69.1Zm2.11,2c-.13-.24-.53-.42-.95-.88.52.19.95.67,1.31.75C49.2,71.37,48.68,71.16,48.55,71.12ZM56.88,78c-.2-.21,0-.43.28,0-.06,0-.15-.08-.19,0,.4.64.31,0,.66.52-.44-.17.29.31.6.78A15.24,15.24,0,0,1,56.88,78Zm9.19-65.81c1.35-.83,4.67-2.77,6.81-3.07a23.66,23.66,0,0,0-6.38,3.05c.09.09.64-.38.92-.51a21.64,21.64,0,0,0-6.29,5.67,34.78,34.78,0,0,0-3.62,6.25l3.59-.12a51.83,51.83,0,0,0-2.76-4.88c-.34-.44-.34-.16-.48-.3a25,25,0,0,0-2.31-2.85c.35-.06-.16-.57-.34-.91s-.1.28-.41-.09c-.06.1.23.4.55.71a22.15,22.15,0,0,0-7.16-4.75,23.58,23.58,0,0,0-9.82-1.6c-.12.11-1,0-.86.21-2.61-.22-4.92.74-7.47,1.7.42,0-.6.26-1,.69-.4.21-.21.07-.21,0a23.06,23.06,0,0,0-9.74,10.9,21.47,21.47,0,0,0-1.54,12.22,14.37,14.37,0,0,0,1,4.62,22.52,22.52,0,0,0,3.77,8.15c-.05.1-.16-.06-.27-.23a22,22,0,0,0,3.08,4.34c.23.28,0-.26.22-.18.24.25.63.88.77.85.34.7-.61-.71-.59-.36A9.74,9.74,0,0,0,27.79,54c3.31,3.74,8,7.18,10.76,9.7.32.09-.45-.56,0-.23.19.2.25.17.31.14.42.43-.16.07,0,.42,2.41,2,3.43,3,5.2,4.19-.42-.1.21.19.29.41a6.81,6.81,0,0,1,1.82,1.15c-.1.16-.84-.62-1.27-.79a29.93,29.93,0,0,0,5.24,4.15c.05-.28-.78-.61-.6-.78a8.64,8.64,0,0,1,2.39,2c-.07,0-.26-.2-.32-.15.12,0,1.36,1.25,1.56,1,.44.69,1,1.12,1.34,1,.24.38.7.89.71,1.14s.08-.12.45.26c-.23-.65-.6-1-1.57-1.92-.29-.16,0,.14-.21.19-.45-.56.06-.24-.36-.8-.94-.91-1.08-.79-2-1.76.56,0,1.55,1.14,2.25,1.8.25.12,1,.7,1,.67.25.1.19.3,0,.23,1.1,1.12,1.3,1,1.63,1,.27.4.23.53,0,.47,1,.92,2.24,2.62,2.93,2.45.07.15,0,.21.23.44.38,0,.79,1,1.3,1a2.75,2.75,0,0,0,.8,1l-4.46,0,.67-1,.2.19c.61-.76,1-1.41,1.54-2.12-.53.2-.92,1.23-1.55,1.88,1.32-2.14,2.71-4,4.31-6.19-.86,1.45-1.76,2.58-2.77,4.07.36-.19.45-.69.8-.8a15.12,15.12,0,0,1,2.32-3.17,18.28,18.28,0,0,1,1.88-2.91c.46-.35-.23.44-.16.51s.39-.68.52-.4c-.5.57-.43.59-.74.65.18.17-.27.36-.12.55-.21.27-.27.17-.34.13,0,.18.13.36-.38.75.27.19,1.1-1.06,1-1.24a9.86,9.86,0,0,0,1.66-2c.24-.26.33-.16.42,0,0-.18,1-.88.9-.49.85-.64.92-.87,1.62-1.38-.22.47.15-.06,0,.43.21,0,.57-.35.86-.53.26.08-.18.55-.15.75.48-.51,0,.35.67-.49-.06.28-.34.71.21.19.23.06-.33.55-.23.68s.49-.17.65-.06-.11.31.1.32a72.55,72.55,0,0,1-5.81,8.78l-4.64,6.09L59.58,87l-1.47-1.4c-2.7-2.6-5.3-5.43-8-8-3.15-2.7-6.54-5.63-9.53-8.2-5.35-4.71-9.45-8.1-13.86-12.18a45.08,45.08,0,0,1-6.45-7.51,30.84,30.84,0,0,1-2.79-5.18c-.35-.78-.75-1.81-1.12-2.86s-.68-2.08-1-3.22a27.74,27.74,0,0,1-.43-12.38,25.27,25.27,0,0,1,5.64-11.33c2.49-2.71-.36.45-.79,1.16a25.38,25.38,0,0,0-4.45,21.62l-.56-3.85c.87,6.48,3.73,13.86,8,18.87-.28-.09-.44-.48-1-1.06a37.34,37.34,0,0,0,4.71,5.37c-.35-.71-1.32-1.3-2.31-2.56-.18-.21-.45-.49-.41-.57l.45.53A159.31,159.31,0,0,0,36.49,65.2c-2.68-2.48-5.69-5.21-9.08-8,.11,0,.22.07.08-.08a45.26,45.26,0,0,1-7.25-8.64,53.18,53.18,0,0,0,10,10.85c-1.62-1.7-3.76-3.39-5.8-5.85-.21-.3-.27-.2-.35-.16a62.57,62.57,0,0,1-3.88-5.63c-.53-.92-1-1.87-1.45-2.84S18,43.07,17.59,42A35.62,35.62,0,0,1,16,36.09a25,25,0,0,1,.85-12.54,26.23,26.23,0,0,1,7.27-10.87,22.34,22.34,0,0,1,13.3-5.41c.87-.07,1.53-.06,2.85-.06.76,0,1.6.2,2.63.33,2.34.28,4.93.75,6.49,1.87.63.25,2,1.05,1.33.72A27.12,27.12,0,0,0,43,7.73a25.5,25.5,0,0,0-13.73,1.9,22.76,22.76,0,0,0-9.68,8.76,26.2,26.2,0,0,1,7.78-7.62,21.32,21.32,0,0,1,10-3.11,28.19,28.19,0,0,1,4.76.1,20.7,20.7,0,0,1,4.62,1A22.94,22.94,0,0,1,56,14.54a33.47,33.47,0,0,1,5.8,8.56l-4.91.17a31.67,31.67,0,0,1,4.1-6.87,20.45,20.45,0,0,1,6.4-5.22C66.82,11.66,66.34,12,66.07,12.19ZM16.26,40.85a8.38,8.38,0,0,0,.93,2.38C16.77,42.4,15.68,38.84,16.26,40.85Zm5.17,10.27c-.49-1-2.14-3.4-2.77-4.48A36.24,36.24,0,0,0,21.43,51.12Zm10.12,9.37.84.77a10.08,10.08,0,0,0-2.07-1.84C30.94,60,31.27,60.28,31.55,60.49ZM56.64,16.57c.27,0-.76-1.09-.88-1.09ZM56.3,77.85c-.13.1.07.4.07.59l.54.62c.15-.09.51.32.8.6-.06.12,0,.39-.25.21.36.16.86.43.7,0,.12.32.29.24.51.42-.09-.19-1.27-1.49-.62-.55C57.41,78.87,56.9,78.64,56.3,77.85Zm1.91,4.42c.15-.93,2.5-3,2.14-3.37a3.11,3.11,0,0,1-.87,1c.32.16-.34.49-.34.8-.15.16-.17,0-.3.16-.29.45-.15.49-.79,1,.05.2-.29.54-.57.85l3.81,0a3.75,3.75,0,0,0-.58-.55l-.08.08c.06.07.11.14.06.15a3.17,3.17,0,0,0,.54.38l-3.68,0a2.18,2.18,0,0,1,.27-.41C57.91,82.44,58.17,82.08,58.21,82.27Zm2.5-.51c-.49-.51-1.51-1.63-1.47-1.27A10.76,10.76,0,0,0,60.71,81.76Zm-2.83-.05a4.69,4.69,0,0,0-.68.75l4.37,0c-.19-.17-.36-.28-.44-.24a1.91,1.91,0,0,1,.35.32H57.3C57.55,82.25,57.94,81.84,57.88,81.71Zm5-6c.48-.49,0-.59-.16-.15-.06,0-.13-.05-.3.16C62.49,75.85,62.77,75.55,62.86,75.69Zm-1.66,2c.14-.14.27-.28.3-.17.65-.7.68-1.06,1.26-1.72-.14,0-.29,0-.54.17a1.45,1.45,0,0,1-.75,1.08c.07.09.07.21,0,.4C61.38,77.42,61.18,77.62,61.2,77.7Zm-44.61-56a48,48,0,0,0-1.49,5.57C15,26.39,16,23.17,16.59,21.67Zm29.1,46.58c.14.52-.7-.55-1.2-.87.12,0,.32.21.36.09C45.08,67.74,45.45,68.31,45.69,68.25Zm4.05,3.51c.28.33,1.1.65,1.16,1.14-.61-.51-.85-.72-1.11-.72a1.45,1.45,0,0,0-.52-.63c.17.06.4.22.51.17C49.91,71.85,49.81,71.82,49.74,71.76Zm-.08-.38c-.1,0-.27-.13-.36-.1-.09-.27-.17-.31-.56-.59C49,70.59,49.21,71.11,49.66,71.38Z" style="fill:#eee;fill-rule:evenodd"/><path d="M104.1,31.24c.06.3.06-.15.05-.35s0-.57-.13-.64A8.6,8.6,0,0,0,104.1,31.24Zm-.74-5.46c-.09-.26-.44-.75-.24-1A10.37,10.37,0,0,1,103.36,25.78Zm.17.64c-.23-.34,0-.53,0,0Zm-1-3.36s0,0,0,.05C102.82,23.63,102.24,23.21,102.57,23.06Zm-.18-.19c-.19,0-.09-.43-.27-.45C102.25,22.27,102.39,22.82,102.39,22.87ZM101,21c.23-.08.18.3.3.42C101.23,21.58,101.11,21,101,21Zm2,13c-.14-.36.1-.48,0,0Zm-.11,1.25c-.13-.42.12-.48,0,0Zm-1.44,1.34c-.15-.36.17-.89.16-1.59A6.41,6.41,0,0,1,101.46,36.52Zm-3-15.39a.4.4,0,0,0-.21.07l-.1-.18C98.37,20.92,98.24,21.11,98.42,21.13Zm-.71.22c-.2,0-.19-.23-.33-.28C97.66,21,97.54,21.22,97.71,21.35Zm-3-3.83c.08-.08.1.07.15.08s-.15,0-.25.14C94.53,17.64,94.67,17.57,94.68,17.52Zm.2.13a.13.13,0,0,0,0,.12c-.1.12-.13,0-.21.1A.27.27,0,0,1,94.88,17.65Zm1.49,2c-.14,0-.26-.13-.46-.16a.61.61,0,0,0,.31,0C96.25,19.57,96.43,19.52,96.37,19.65Zm-1.83-2.18a.46.46,0,0,0-.14.09c.13-.21-.55-.08-.13-.37C94.15,17.46,94.62,17.25,94.54,17.47Zm1.55,1.89a.22.22,0,0,1-.22-.12C96,19.18,96.12,19.3,96.09,19.36Zm-1-.77c.11.07-.18.2-.27.3C94.76,18.81,95,18.61,95.08,18.59Zm-1.8-1.37a.21.21,0,0,0-.34-.08c0-.13,0-.12-.08-.15.08-.13.12,0,.2-.12C93.06,17.1,93.5,16.94,93.28,17.22Zm.24.08s-.07.1,0,.13-.16-.11-.27,0c0-.15.25-.13.23,0Zm-.6-.47-.11.12c0-.05-.16-.06,0-.17C92.83,16.83,92.89,16.78,92.92,16.83Zm-.62-.1c0-.11.33-.17.29-.05S92.4,16.68,92.3,16.73Zm.13,0s0,0,0,.06.3-.24.26-.07-.14,0-.25.15C92.37,16.89,92.36,16.84,92.43,16.77ZM92,16.35c0,.1.14,0,.19.17-.2.09-.26,0-.43.08C91.78,16.48,92,16.39,92,16.35Zm-2.24-.24s-.13.29-.15.17.06,0,.09-.08-.16.17-.21.07c.18-.16-.07,0-.11-.14A.63.63,0,0,1,89.8,16.11Zm11.64,23c-.21.28-.24,1.07-.62,1.39a11,11,0,0,0,.39-1.37c-.12,0-.06.14-.11.19.35-1.74.59-2.86.75-4.33,0-.11-.18-.08-.21-.12l.07-.74c.28.06.29-.08.4-.15s-.26,0-.22-.09c-.12,0-.12.08-.12.17,0-1,0-2.37-.12-3.74-.11,0,0-.21-.18-.16.36-.55,0-1,0-1.56-.17.1,0-.13-.2-.23,0-.08,0,0,.11,0A14.48,14.48,0,0,0,99.63,23a1.25,1.25,0,0,0-.43-.88,2.58,2.58,0,0,0-1.13-1.54c.08-.06.11,0,.13,0a2.21,2.21,0,0,0-.62-.92c0-.06-.09.11-.24.15s0-.23-.17-.17c.08-.24.11.16.26,0,0-.27-.26-.39-.52-.48-.43-1-1.59-1.62-2.15-2.11-.16.06,0,.18-.1.14s-.08,0-.13,0c-.06-.12.13-.11.16-.24-.58-.33-.76-.56-1.29-.62.2-.11,0,0,0-.15-.2,0-.42.15-.58,0,.12-.14.23.05.41,0a1.38,1.38,0,0,0-1.35-.46c-.12.21.21,0,.05.25-.3,0-.49,0-.58-.23.05,0,.07,0,.12,0s-.33-.15-.51.1c0-.22-.18-.21-.41,0,0-.1-.13-.16-.07-.31-.06,0-.07.11-.17.09,0,.28.07.25.31.34.11-.06,0-.1.16-.23.08.11-.1.18,0,.32.22.1.34-.05.52.12-.29.27-.43,0-.61-.05s-.33.09-.33.11,0-.08.07-.15c-.27-.09-.42.12-.58.29,0-.1,0-.2.14-.31-.27,0-.49-.34-.86.16,0,0,0-.12,0-.14-.16.22-.18-.18-.44.13,0-.27-.32-.15-.48-.15l.13-.24a3,3,0,0,0-.6,0c0,.27.35,0,.49.15a4.25,4.25,0,0,1-.91.09h-.1l.27.14h-.33l-.45,0a1.76,1.76,0,0,1,.6-.13l.14,0h.09L87.23,16h.35c0-.17-.2,0-.17-.17l-.06,0h0l.25.13h0l-.13,0a1.24,1.24,0,0,1-.27,0c-.18,0-.33,0-.37-.1-.23.23-.51.12-.87.21-.06-.15.14-.08.19-.16s-.22.09-.08-.16c.15,0,.17,0,.14.19.1-.23.1,0,.2-.22.08,0,0,.1,0,.19.09-.14.18-.3.25-.14.13-.3-.24-.23-.33-.09a.45.45,0,0,0-.52-.12c-.07,0,0-.16.05-.28-.08.13-.18-.26,0-.39-.11-.28-.19-.21-.28-.44.16-.1,0-.08.18-.23s0-.23-.06-.34.2-.16.29-.3c-.13-.06.15-.21-.08-.22.1-.11.23-.14.12-.26.06-.2.16-.05.24-.2s0-.26.1-.45.1-.08.14-.24A5.84,5.84,0,0,1,89,11.75c.86.1,1.4.17,2.13.29a12.72,12.72,0,0,1,2.2.7,13.27,13.27,0,0,1,2.57,1.47,18.71,18.71,0,0,1,6,7,15.31,15.31,0,0,1,1.77,4.94c.1.74-.12-.11-.16-.25a17,17,0,0,0-1.69-4.44,1.92,1.92,0,0,0,.31.77c-.84-1.16-1.49-2.73-2.4-3.86.17,0,.12.1.26.21-.14-.55-.59-.77-.93-1.32-.1.29.28.32.41.67,0,.06.1.12,0,.17L99.47,18a18.31,18.31,0,0,0-2.84-2.59,14.37,14.37,0,0,0,2.05,2c-.05,0-.11,0-.09.07.6.65,1,1.35,1.55,2-.76-.79-1.39-1.68-2.25-2.46.22.53.78.85,1.12,1.48,0,.08.11,0,.18,0a5,5,0,0,0,.72,1.31,23,23,0,0,1,3.3,10.3c0,.17,0,.33,0,.56s-.11.38-.11.56c0,.47.32,1,0,1.35,0,.12,0,.4-.07.26a7.76,7.76,0,0,1,0-1.57,25.76,25.76,0,0,0-.76-5.43c.07,1.48.65,3,.61,4.29a15.14,15.14,0,0,1,0,1.91c-.34,2.46-.1,5.14-1.29,7.48C101.42,39.25,101.47,39.15,101.44,39.07Zm.09-18.24c0-.09-.09-.43-.34-.46C101.35,20.51,101.67,21.27,101.53,20.83Zm-1.33-2.17c-.06.32.4.78.61,1A11.18,11.18,0,0,0,100.2,18.66Zm-2.62-2-.17-.2c0,.08.3.53.46.45A.67.67,0,0,0,97.58,16.68Zm4.15,17.73c.19.05.16-.26.08-.28A1.2,1.2,0,0,0,101.73,34.41ZM90.05,15.87c.1-.14.07-.22.11-.33L90,15.46c-.1.14-.18.09-.27.09.06-.12.08-.23.18-.29-.15.12-.33.24-.34.39,0-.14-.08,0-.15,0s.28.19.18,0C89.74,15.86,89.94,15.71,90.05,15.87Zm-1.42-.49c-.38.37-.75-.27-1,.19.19,0,.16,0,.24.13.15-.31.13,0,.28-.16,0,0,0,.1,0,.13s.19-.14.29,0c.17-.22.22.06.43,0l0-.09s0,0,0-.07-.21.12-.31.08C88.63,15.51,88.53,15.5,88.63,15.38Zm.12.59c.16,0,.42.15.47-.05C89.09,16,88.91,15.84,88.75,16Zm-.45-.07a.19.19,0,0,0,.34,0C88.53,16,88.41,15.75,88.3,15.9ZM87,15.58c-.12-.08-.25.31-.1.21,0,.06-.05.12,0,.13C87,15.77,86.89,15.73,87,15.58Zm.52.13s-.06-.05,0-.14c-.17-.09-.32.09-.48,0,0,.12-.08.23,0,.29.12-.12.31-.28.31,0,0-.09.1-.16.15-.17S87.46,15.77,87.49,15.71Zm15.6,8.92c-.39-.27-.26-.74-.48-1.09C102.89,23.63,102.86,24.35,103.09,24.63ZM92.52,17c.12-.28.18.05.32.06,0,0-.09,0-.16.08C92.66,17.07,92.68,16.85,92.52,17Zm-.89-.53c0-.09-.35.06-.21-.24.14.07.19.1.34,0,0,.07-.06.16,0,.18a.66.66,0,0,0-.21.12S91.62,16.46,91.63,16.47Zm-.09.21c.06-.05.1,0,.16-.1,0,.13,0,.13.08.14C91.63,16.88,91.68,16.65,91.54,16.68Z" style="fill:#eee;fill-rule:evenodd"/></svg>