<svg xmlns="http://www.w3.org/2000/svg" width="128" height="84.75" viewBox="0 0 128 84.75"><path d="M77.66.6C80.11.78,76.5.42,74.9.27A33.55,33.55,0,0,0,69.65,0C71.85.1,75.35.4,77.66.6ZM33.87,4.07c-2,.6-6.22,2.16-8,2.53C28.51,5.66,32.12,4.52,33.87,4.07ZM39,2.74c-2.84.85-4,.9,0,0ZM13.05,12.36c.23-.15.27-.13.31-.11C17.44,9.94,13.54,12.47,13.05,12.36Zm-1.62,1.09c-.48.47-3,2-3.48,2.59C7.15,16.36,11.08,13.55,11.43,13.45ZM.79,30.77a4.89,4.89,0,0,1,0-2,24.39,24.39,0,0,1,.59-2.83c.31-.82,0,.17-.31,1.49A14.45,14.45,0,0,0,.79,30.77ZM99.35,6.13c-2.84-.66-3.88-1.23,0,0Zm9.8,3.38c-3.18-1-3.73-1.5,0,0Zm10.8,8a49.61,49.61,0,0,0-12.13-7,61.11,61.11,0,0,1,5.84,2.68L117,15.25C118.14,15.93,119.06,16.85,120,17.51ZM5.37,38.5c.17.18.29.22.37.15a15.69,15.69,0,0,0,1,1.52C6.38,40.15,6,39.23,5.37,38.5Zm1.31.62c.37.24,1.63,2,2.43,2.61C8.39,41.43,7.73,40.45,6.68,39.12ZM38.06,26.84c.07,0-.09.23-.29.53l0,.06,0,.1c.08.3.17.61.24.85-.14-.1-.31-.57-.44-.48,0-.1-.05-.19-.07-.28l-.06-.27.1-.12C37.92,26.74,37.85,27.06,38.06,26.84ZM38.13,29c0,.24,0,.48.09.88-.12.23-.21-.55-.33-.53C37.85,28.8,37.94,28.52,38.13,29ZM23.88,40.49c.63-.26,2.22-.6,3.43-1a3.58,3.58,0,0,0-1.1.54C25.05,40.19,24.54,40.49,23.88,40.49ZM38.81,25.87c.08-.15.15-.29.09-.35.48-.28,3-2.9,2.68-2C40.55,23.88,39.58,25.33,38.81,25.87ZM27.36,39.72a11,11,0,0,1,2-.54A6.56,6.56,0,0,1,27.36,39.72ZM37,36.19c-.46.94-.42.17-.63.28C36.77,35.79,37.09,35.85,37,36.19ZM46.94,20a16,16,0,0,0,2.88-1.11,5.17,5.17,0,0,0,1.51-.32c.25.12-.57.25-.55.37C49.22,19.09,47.46,20.12,46.94,20ZM45,20.88c-.32.12-.25,0-.62.14.3-.26,1.68-.82,1.92-1,.82-.16-.71.57-1.35.78Zm7-2.31,0-.18c.54-.1,1.49-.38,1.23-.14C52.61,18.36,52.53,18.46,52,18.57ZM57,17.41c.65,0-1.35.48-1.8.46C55.26,17.67,56.57,17.53,57,17.41Zm-1.22.19c-.25,0-.28,0-.31,0-.47.17-.59.5-1.47.47,0-.16,1.28-.26.86-.43C55.51,17.5,55.85,17.49,55.82,17.6Zm5.48-.34a18.75,18.75,0,0,0-2.41.11c1-.34,2.11-.25,2.69-.48C62.45,17,61.51,17.19,61.3,17.26Zm19.88.79c-.54-.12-.46-.47.37-.15-.07,0-.32,0-.33,0,1.35.52.48-.1,1.58.3-.84,0,.81.22,1.82.71ZM125.55,38.7l-1.79,2.45a20.49,20.49,0,0,1-2.88,2.62,16,16,0,0,1-6.88,3,18.09,18.09,0,0,0,6.14-2.67,13.65,13.65,0,0,0,2.47-2A15.29,15.29,0,0,0,125,39.16c-.14,0-.87,1.17-1.25,1.64a15.29,15.29,0,0,0,3.48-11.06,17,17,0,0,0-4.07-9.26c-4.16-4.84-9.3-7.7-15.22-10.24-.91-.29-.6,0-.92-.09l-2.94-1.08-1.54-.56L101,8.05c.41-.19-.76-.54-1.33-.83-.77-.27.13.33-.65.06,0,.14.7.34,1.42.54a131,131,0,0,0-31.5-5.3c-.21.1-1.79-.13-1.51.1-4.45-.47-8.59,0-13.28.3.67.15-1.11.06-2.09.37-.76.1-.37,0-.31-.08A109.26,109.26,0,0,0,26.65,9.15C19,12,11.91,15.39,7.56,20a13.37,13.37,0,0,0-4.27,7.78A18.15,18.15,0,0,0,3,32.17a13.83,13.83,0,0,0,1,4.36A15.64,15.64,0,0,0,9.15,43c0,.16-.26-.07-.54-.33a14.8,14.8,0,0,0,1.73,1.51l.31.22.41-.08c2.26-.44,5-1,7.2-1.57.65-.14-.41-.07-.06-.3a13.63,13.63,0,0,0,2-.47c1.37-.08-1.67.35-1.12.47a38.91,38.91,0,0,0,5.8-1.37c3.78-.68,7.84-1.56,11.77-2.45l.18,0,.11-.13c2.65-3.51,2.22-8,1.17-11.07l0,.18a10.66,10.66,0,0,1,2.11-2.38c.29-.48-1.06.77-.35,0,.4-.31.4-.4.38-.48.88-.66,0,.21.65-.14,4.5-3.44,7.22-4,10.91-5.28-.62.36.51-.11.9-.08a14.72,14.72,0,0,1,3.79-1c.09.16-1.87.39-2.63.68,4.14-.7,7.76-.83,12.24-1.24-.29-.26-1.83.05-1.8-.21a22.39,22.39,0,0,1,5.73,0c-.08.06-.6,0-.61.09.09-.14,3.34.19,3.35-.13,1.44.3,2.67.44,3.07.11a11.18,11.18,0,0,1,2.38.68c.35,0,0-.16.94,0a14,14,0,0,0-4.52-.94c-.59,0,.16.13,0,.3-1.31-.23-.22-.28-1.48-.5-2.38-.18-2.45,0-4.88-.15.66-.42,3.44-.08,5.2.06.48-.06,2.23,0,2.17,0,.47-.06.64.16.28.22,2.89.43,3,.21,3.49.06.87.29,1,.44.53.51,2.54.36,6.35,2.11,7.26,1.94a4.43,4.43,0,0,0,.86.61c.7.05,2.31,1.55,3.34,2.21l.23.33,1.29,1.87L92,25.9c-.46.57-.34,2-.17,2.94l-.3,0a14,14,0,0,0,1.11,3.79c0-.82-.83-2.24-.91-3.57A18.71,18.71,0,0,0,93.4,33.5l-2-1.94L98.82,34c-2.6-.71-4.82-1.49-7.48-2.35l2,1.88a6.5,6.5,0,0,1-.37-.72,1.73,1.73,0,0,0,.28.76l-1.9-1.83a2.75,2.75,0,0,1,.88.41A46.23,46.23,0,0,1,99,34.46a52.59,52.59,0,0,1,6,1.79c.92.5-.86-.2-.92-.12s1.38.37,1.06.56c-1.29-.5-1.25-.42-1.61-.78-.11.24-.77-.26-.94-.06-.6-.21-.49-.29-.48-.38-.25.07-.44.21-1.47-.34-.06.35,2.55,1.16,2.78,1.06a29.14,29.14,0,0,0,4.46,1.67c.6.26.53.38.44.5.23-.08,2.2,1.08,1.52,1,1.69.92,2.1,1,3.47,1.73-.9-.2.22.16-.66,0a8.29,8.29,0,0,0,1.54,1c.11.33-1-.13-1.26-.06,1.19.49-.5.09,1.32.73-.48,0-1.37-.3-.12.27.13.3-1.1-.3-1.21-.16s.69.56.64.78-.55-.09-.38.16c-5.18-1.28-11.62-3.27-18.29-5.58l-5.43-1.89L89,36.18l-.27-.56A22.09,22.09,0,0,1,87,30.3a12.91,12.91,0,0,1,.25-6.14c.08.58.16,1.15.24,1.75a12.17,12.17,0,0,0-3.07-1.82,26.93,26.93,0,0,0-4-1.33,49.93,49.93,0,0,0-8.85-1.27c-1.74-.13-3.58-.16-5.44-.17l-2.75,0-2.95.16a43.88,43.88,0,0,0-10.65,2,24.06,24.06,0,0,0-5.64,2.72,15.18,15.18,0,0,0-2,1.61,9.29,9.29,0,0,0-1.14,1.33c.09-1,.18-2,.25-2.86A17.3,17.3,0,0,1,42,33.58a13.2,13.2,0,0,1-2.64,6.81l-.76,1-1.33.29L11.67,47.3,10,47.67l-1.38-1a22.52,22.52,0,0,1-4-3.74,20.48,20.48,0,0,1-3.15-5.07A17.4,17.4,0,0,1,0,31.32a18.44,18.44,0,0,1,.22-3.5,16.1,16.1,0,0,1,1-3.62,21.69,21.69,0,0,1,7.32-9.1A51.17,51.17,0,0,1,18,9.54c1.65-.79,3.19-1.4,4.95-2.14,1.59-.59,3.06-1.2,4.78-1.75A99.78,99.78,0,0,1,37.4,2.86c5.79-1.26-.94.29-2.07.65-3.15.83-6.13,1.8-9.09,2.83-2.7,1-5.65,2.13-8.36,3.44a53.1,53.1,0,0,0-8.24,4.67A24.1,24.1,0,0,0,2.2,22.51a25.54,25.54,0,0,1,4.89-5.88A21.25,21.25,0,0,0,2.17,23,17.36,17.36,0,0,0,.44,31.55,17.27,17.27,0,0,0,3.05,40.1a21.55,21.55,0,0,0,5.78,6.27l1.21.9,1.55-.34,6.34-1.36a12.24,12.24,0,0,1-2.31.6c4.06-.66,7.13-1.59,11.94-2.51-1.34,0-3.14.68-5.84,1.13a4.08,4.08,0,0,1-1.18.18l1.17-.23,15.5-3.52L38.37,41l.66-.85a12.85,12.85,0,0,0,2.57-7,16.84,16.84,0,0,0-1-6.65c-.08.85-.14,1.64-.21,2.42a7.74,7.74,0,0,1,1-1.23,8.61,8.61,0,0,0-1,1.19c.06-.76.13-1.52.2-2.36a17.17,17.17,0,0,1,.83,6.57A12.92,12.92,0,0,1,38.84,40l-.61.79L37.16,41c-2.7.6-5.46,1.25-8.22,2,.16-.09.33-.18,0-.12L11.53,46.61l-1.38.3L9,46.1a16.93,16.93,0,0,1-1.54-1.22A17.7,17.7,0,0,0,9,46.08l1.16.81,1.33-.3L35,41.28c-4.28.74-8.82,1.94-14.27,3-.63.1-.54.2-.55.29-2.92.48-5.85,1.1-8.7,1.7l-1.23.27-1-.72a19.13,19.13,0,0,1-2.5-2.14A18.27,18.27,0,0,1,1.23,32.61a16.81,16.81,0,0,1,3.2-11.82,29.2,29.2,0,0,1,8.72-7.35,72.1,72.1,0,0,1,9.71-4.68,112.2,112.2,0,0,1,44.61-8l4.6.23c1.48.05,3.05.4,4.56.53,3.83.39,8,.7,10.87,1.71,1.09.17,3.61.72,2.39.52-4.81-.81-9.21-1.67-13-2a113.38,113.38,0,0,0-44.78,4.1c11.64-3.28,24.41-5,35.32-4.65A123,123,0,0,1,83.24,2.76,146.47,146.47,0,0,1,98.62,6.35l3.81,1.12c1.48.48,2.51.9,3.79,1.35a65.35,65.35,0,0,1,7.5,3.28c4.81,2.68,9.63,6.16,12.56,11.67A16.65,16.65,0,0,1,127.85,33a16.62,16.62,0,0,1-4,8.36C124.59,40.18,125.24,39.29,125.55,38.7ZM.24,29.59.17,30.67l0,1.18a9.28,9.28,0,0,0,.52,2.92,12.61,12.61,0,0,1-.38-2.25,19.31,19.31,0,0,1-.06-2.61C.37,28.16.52,27.32.24,29.59ZM14.77,46.46A28.67,28.67,0,0,0,11.6,47L10,47.32l-1.24-.9A26.42,26.42,0,0,1,4,41.85a20.64,20.64,0,0,0,4.75,4.67l1.27.93,1.63-.34Zm24.71-7.78a12.28,12.28,0,0,0,1.14-2.44,15.64,15.64,0,0,1-2,3.54l-.62.74-.91.2a9.47,9.47,0,0,0-1.83.5l1.86-.39,1.06-.23.53-.74C39.05,39.38,39.29,39,39.48,38.68ZM103.66,8.86c.17,0-.34-.27-.92-.48A6.35,6.35,0,0,0,101.31,8l1,.34.54.19Zm-23.49,9.3c0,.17.59.39.82.58l1.49.46c.13-.17,1.13.16,1.88.41,0,.17.48.46-.14.34.7,0,1.76.34,1.1-.13.54.38.71.24,1.24.45-.34-.3-3.6-1.55-1.54-.59A27.83,27.83,0,0,0,80.17,18.16ZM90.94,28.41a26,26,0,0,1,.71,2.73,8.88,8.88,0,0,0,1,2.67l-1.61-1.54c.24,0,.39,0,.43,0l-.36-.11,1.69,1.63a4.33,4.33,0,0,1-.51-1.52c-.31.27-.33-.86-.62-1.15-.07-.33.06-.25,0-.52a3.78,3.78,0,0,1-.37-1.92c-.33-.28-.09-1.62,0-2.44l-.11,0c0,.11-.06.24-.11.19-.06.61.07.81.06,1.58C91.05,27.94,91.1,28.58,90.94,28.41Zm.8-2.5,0-.1.41-1.76-.78-.95a9.76,9.76,0,0,0-2.65-2.24c-.78-.45-1.33-.67-1.12-.43a12.9,12.9,0,0,1,3.75,2.69l.17.19.19,2.49Zm-.13,2.72a7,7,0,0,0-.06-2C91.53,27.1,91.37,28.47,91.61,28.63Zm6.92,6.11c1.16.5.9-.08.09-.22,0-.08,0-.17-.51-.34C98,34.31,98.67,34.6,98.53,34.74Zm-4.46-1.68c.33.15.65.29.51.34,1.61.67,2.18.64,3.67,1.23,0-.17-.18-.36-.71-.62a4.38,4.38,0,0,1-2.28-.72c-.08.09-.25.11-.64,0C94.64,33.23,94.17,33,94.07,33.06ZM25,6.91c-.61.31-1.26.6-1.94.87l-2.21.93c-1.47.57-3,1.25-4.38,2C17.58,9.86,22.67,7.85,25,6.91ZM53.69,17.8c.91.13-1.63.36-2.68.73.18-.1.68-.21.56-.31A7.06,7.06,0,0,0,53.69,17.8Zm10-.95c.8.07,2.34-.24,3,.12a6.5,6.5,0,0,0-2.42.2A3.58,3.58,0,0,0,62.78,17c.28-.1.89-.13.94-.25C64.06,16.81,63.89,16.86,63.72,16.85Zm-.66-.24c-.1.08-.52.11-.59.2a3.33,3.33,0,0,0-1.49,0C61.14,16.56,62.14,16.75,63.06,16.61Z" style="fill:#eee;fill-rule:evenodd"/><path d="M79.76,81.89c2-.06-1-.06-2.25-.06a34.71,34.71,0,0,0-4.23.12Zm-35.65.18a47.05,47.05,0,0,1-6.72,0ZM48.35,82c-2.38.17-3.33-.07,0,0ZM28.21,80.46c.16.05.16.09.16.13C31,81.56,28.27,80.89,28.21,80.46Zm-1-.42c-.47,0-1.53-1.15-1.84-1.27-.09-.2.29.1.71.48S27.07,80,27.19,80Zm-3.73-7.88c.22.19-.29,1.36-.28,2.12-.1.39-.05-.08,0-.7A12.65,12.65,0,0,0,23.46,72.16ZM97.29,82.5c-2,.51-2.79.35,0,0Zm6.31-2.62a4.37,4.37,0,0,1-1.45,1C102.08,80.86,102.59,80.6,103.6,79.88Zm3.91-6.36c.57,1.84-.09,5.4-3.57,7.82a10.21,10.21,0,0,0,2.78-3.13A7.41,7.41,0,0,0,107.51,73.52ZM23.7,65.3c0-.2,0-.3-.12-.32l.61-1.37C24.37,63.92,23.85,64.55,23.7,65.3Zm-.31-1.22a19.8,19.8,0,0,1,1.06-2.81C24.47,61.94,23.88,62.74,23.39,64.08Zm19.9-26.54c.14,0,0,.87,0,1.23-.09-.11-.13-.54-.27-.5C43.1,37.5,43.24,37.81,43.29,37.54Zm0,1.72a5.86,5.86,0,0,0-.16.72c-.19.15,0-.49-.16-.51C43,39.06,43.21,38.86,43.27,39.26Zm-13.55,9.9c.11-.53.58-1.63.88-2.61l0-.18.3-.12.23-.09-.23.11-.3.15,0,.13a1.58,1.58,0,0,0-.08.79A15.93,15.93,0,0,1,29.72,49.16Zm13.47-12.6c-.06-.12-.12-.24-.2-.23.3-.5-.87-3.13-.24-2.67C42.67,34.51,43.36,35.78,43.19,36.56ZM31.24,46.4a7.88,7.88,0,0,1,1.66-.55A4.58,4.58,0,0,1,31.24,46.4Zm9.09-2.67c-.91.28-.38-.2-.59-.29C40.47,43.27,40.6,43.58,40.33,43.73Zm5.16-15a12.73,12.73,0,0,0,2-1.7,3.18,3.18,0,0,0,1.17-.61c.25.05-.4.36-.34.47C47.09,27.38,46,28.79,45.49,28.74Zm-1.27,1.35c-.21.2-.21.05-.46.31.12-.35,1.1-1.18,1.21-1.45.62-.36-.38.7-.84,1.06Zm5-3.75-.09-.16c.43-.2,1.17-.61,1-.34C49.75,26,49.7,26.13,49.26,26.34Zm4-2c.54-.1-1,.7-1.41.73C51.81,24.91,52.89,24.56,53.25,24.36Zm-1,.39c-.21.08-.24.06-.27,0-.37.24-.4.55-1.14.68,0-.17,1-.45.62-.56C52,24.7,52.27,24.64,52.28,24.75Zm4.55-1.1a16.24,16.24,0,0,0-2,.42c.73-.44,1.77-.52,2.23-.82C57.79,23.19,57,23.56,56.83,23.65Zm16.8-.89c-.46-.07-.4-.42.31-.19-.06,0-.27,0-.28.07,1.16.34.4-.19,1.34.09-.7.07.69.16,1.56.44C75.53,23.08,74.49,22.83,73.63,22.76Zm26.94,35.43c-.77-2.09-3.14-6.9-4-9.66,1.56,3.49,2.42,5.41,4.06,9.1.11-.08-.4-1-.55-1.39,2.54,5.59,4.7,10.31,6.56,14.6,1.66,3.85.88,7.82-2.79,10.3-.52.43-.21.4-.38.57a17.29,17.29,0,0,1-4.3,1.8c.16-.36-.71-.1-1.2-.15s.21.24-.4.32c.06.12.59,0,1.15-.1-3,.86-7,.82-11.62.83l-14.27.06c-.17.12-1.49,0-1.25.18-3.68-.43-7.08,0-11-.12.54.19-.91,0-1.74.18-.64,0-.3,0-.25-.12l-21.31.14c-6.51.22-12.59-1.88-15.08-5.6A10.31,10.31,0,0,1,21,73.25c.23-1.87,1.37-4,2.25-6.14S25,62.9,25.57,61c.13,0,0,.23-.09.51.89-1.82,2.29-5,3.2-7.31.22-.51-.27.24-.28-.12.18-.49.74-1.46.66-1.62.65-.95-.57,1.31-.19,1a26.78,26.78,0,0,0,1.87-4.62L31.59,47l-.38.32c3.56-.85,7.31-1.9,10.77-2.89l.18,0,.07-.13a13.73,13.73,0,0,0,1.31-9c-.21-.42,0,1.11-.15.27,0-.42-.11-.46-.18-.47-.11-.91.2.07.21-.55a11.46,11.46,0,0,0-.33-1.22v.08C45,30,47,28.82,49.36,27.1c-.4.49.38-.23.73-.23A9,9,0,0,1,53,25.26c.12.18-1.49.62-2,1.08a52.33,52.33,0,0,1,10-2.75c-.24-.28-1.55.22-1.54-.05a14.41,14.41,0,0,1,4.82-.38c-.06.06-.5,0-.51.11.08-.1,2.82,0,2.81-.36,1.23.26,2.26.23,2.58-.11a8.37,8.37,0,0,1,2,.47c.29,0,0-.15.79-.08a10.58,10.58,0,0,0-3.84-.53c-.49.08.15.12,0,.3-1.11-.13-.2-.23-1.27-.39-2,0-2,.16-4.13.18a1.48,1.48,0,0,1,.67-.25,11.87,11.87,0,0,1,1.19-.07l2.54,0c.41-.08,1.87-.15,1.83-.17.39-.1.54.1.24.2,2.44.18,2.53-.06,2.94-.26.74.19.83.33.46.44,2.16.12,5.44,1.29,6.18.86a2.57,2.57,0,0,0,.75.42c.56-.13,2.06.94,2.76.87.88.73,2.75,1.62,3.89,2.71l-.22.2a7.74,7.74,0,0,1,1.17,1.38l.56.84-.27,1.61a9.2,9.2,0,0,0,0,2.11c.24-.48,0-1.34.19-2.07l.3-1.63-.61-.93a8.47,8.47,0,0,0-.92-1.17,5.67,5.67,0,0,1,1,1.14l.49.72-.18,1.89a17.27,17.27,0,0,0,1.57,7.83l-2.09-2.34.24.09-.25-.08,2.09,2.34a15.75,15.75,0,0,1-1.64-5.6c-.17.46.15,1,0,1.39.28,1,1,3.42,1.37,4.31L86.94,37.4l.44.25c.87.06,2.92,1.06,5,1.79.73.5-.72-.2-.78-.11s1.14.36.84.55c-1-.51-1-.42-1.28-.78-.13.24-.64-.26-.81-.06-.49-.21-.38-.29-.36-.39-.23.08-.41.21-1.22-.34-.1.34,2,1.16,2.25,1.06A20.75,20.75,0,0,0,94.6,41c.48.25.41.38.31.49.21-.08,1.75,1.07,1.18,1,1.33.92,1.68,1,2.76,1.72-.75-.2.16.16-.58,0,.11.25.8.63,1.21.94,0,.32-.84-.14-1.08-.07.95.48-.44.08,1,.72-.4,0-1.13-.31-.13.27.06.28-.91-.31-1-.18s.52.56.46.76-.47-.08-.36.16c-3.92-1.19-8.68-3-13.65-5l-.32-.14-.19-.44c-.21-.5-.38-1-.55-1.48a18.18,18.18,0,0,1-.85-9.57q.07.63.15,1.29a10.72,10.72,0,0,0-3.27-2.19,24.29,24.29,0,0,0-4.37-1.42A46.47,46.47,0,0,0,65.65,27l-2.13,0-2.39.16a32.78,32.78,0,0,0-4.38.72A20.47,20.47,0,0,0,49,31.38,11.11,11.11,0,0,0,46,34.74c.07-.86.13-1.71.18-2.33a20.17,20.17,0,0,1,.72,7,14.38,14.38,0,0,1-2,6.5l-.69,1.12-1.41.39L32,50.39l2.5-2.1C32.73,52.4,31,56.58,29,61.15l-3.11,7.22c-.27.64-.55,1.28-.83,1.93s-.51,1.26-.77,1.9A12.42,12.42,0,0,0,24,73.5a6.07,6.07,0,0,0-.06,1.4A5.21,5.21,0,0,0,26,78.81a12.56,12.56,0,0,0,5.62,2.47,24.94,24.94,0,0,0,3.51.44l1.81,0H47.11c4.76,0-.79.11-1.75.12L37.75,82a27.23,27.23,0,0,1-6.3-.53c-3.85-.84-7.14-2.87-7.64-5.79a4,4,0,0,0,1.3,2.7,5.3,5.3,0,0,1-1.6-3.67,8.07,8.07,0,0,1,.27-2.25c.09-.39.41-1.09.61-1.62l.68-1.6c2-4.54,3.95-9.08,5.77-13.26a9,9,0,0,1-.71,1.87c1.56-3.08,2.39-5.64,4.12-9.36-.7.9-1.07,2.47-2.09,4.53-.17.36-.36.88-.46.88l.4-.91q1-2.45,2-4.84L31.88,50l10.76-3,1.24-.34.58-1a14.92,14.92,0,0,0,1.79-9.93,15.39,15.39,0,0,1-2,9.8l-.56.92-1.13.3c-3.17.83-6.47,1.75-9.77,2.8.14-.09.27-.18,0-.12l-1,.26,2-1.72-6,14c1.82-4.55,3.8-9.18,5.85-14l-1.94,1.63,6-1.67c-1.92.41-3.9,1-6,1.53l1.84-1.55c-.72,1.72-1.5,3.55-2.39,5.49-.25.47-.12.46,0,.53-1.48,2.91-2.76,6-4,8.85l-3.5,8a9.31,9.31,0,0,0-.87,3.29,6.22,6.22,0,0,0,.42,2.9c1.36,3.64,6.41,5.74,11.51,6l36.83-.16h3.74c1.2,0,2.51.12,3.74.12,3.14,0,6.54-.34,9,.06.9,0,3,0,2,.06-4,.17-7.63,0-10.71.06l-36.89.18c9.86.24,20.27-.15,29.16-.06l13,.06c4.21,0,8.87.35,12.43-.27,3.76-.62,7.35-2.36,8.84-5a6.68,6.68,0,0,0,.78-4.4,9.05,9.05,0,0,0-.69-2.44l-.6-1.42-.66-1.49c-1.75-4-3.46-8-5.1-12C100,57,100.33,57.77,100.57,58.19ZM23.93,72.8c-.13,0,.95-2.28,1-2.86-.11.29-.29.74-.5,1.26a7.59,7.59,0,0,0-.51,1.47C23.77,73.27,23.68,73.58,23.93,72.8Zm6-14.26a46.59,46.59,0,0,0-2.89,6.62C28.09,62.76,28.86,61,29.94,58.54ZM40.43,47.17l1.69-.43A21.84,21.84,0,0,0,38,47.84C39.27,47.52,39.92,47.35,40.43,47.17ZM101,82.81c.15-.23-1.62.43-1.72.52A9.56,9.56,0,0,0,101,82.81ZM72.79,23c0,.18.51.33.71.49.43.09.85.15,1.28.26.1-.16,1,0,1.59.15,0,.15.43.37-.09.34.59,0,1.49.05.91-.28.47.27.61.12,1.07.21-.3-.18-3.1-.94-1.33-.29A27.79,27.79,0,0,0,72.79,23ZM85,27.71a4.22,4.22,0,0,1,1.73,1.61l.56.78L87,31.46c-.27,1.22-.27,3.42.16,3.41a3.13,3.13,0,0,1,0-1.58c-.39.1,0-.69-.2-1,0-.24.13-.16.19-.33a4.08,4.08,0,0,0,0-.5l-.06-2-.21-.3c-.44-.59-.64-.8-1.34-1.62-.46-.07-1.69-1.39-2.83-1.84l-.06.11c.15.08.28.19.21.2a10.33,10.33,0,0,1,1.85,1C84.66,27.2,85.32,27.75,85,27.71Zm-2.67-2.47c-1.15-.68-3.62-1.55-3.22-1.16C80.17,24.33,81.7,25.05,82.37,25.24Zm3.36,2.21c-.42-.57-2.14-1.76-2.34-1.6C84,26.07,85.45,27.43,85.73,27.45ZM87,37.91c.93.5.78-.07.1-.21,0-.06,0-.12-.17-.23.57.65,1.14,1.28,1.9,2.13l0-.13c-.1,0-.1.15-.13.19l-1.81-2C86.93,37.74,87,37.85,87,37.91Zm.62-1.18c0,.26.07.5,0,.44A6.12,6.12,0,0,0,88,38.56c.09.19.17.38.25.56l.13.31.06.16,0,.08,0,0h0L86.74,37.8h0l1.73,1.93h0l0,0a.61.61,0,0,0,0-.12,1.14,1.14,0,0,0,0-.44,2.06,2.06,0,0,1-.6-1.59c-.11,0-.22-.09-.32-.37C87.72,37.14,87.67,36.77,87.59,36.73ZM36.68,82.06a17.26,17.26,0,0,1-6.3-.68C31.18,81.49,34.78,82.29,36.68,82.06ZM50.51,25.3c.82,0-1.3.6-2.06,1.21.12-.14.51-.35.38-.42C49.35,25.83,50.42,25.6,50.51,25.3ZM58.86,23c.71,0,2-.5,2.59-.15a4.1,4.1,0,0,0-2,.39,3.37,3.37,0,0,0-1.33,0c.25-.1.7-.19.77-.32C59.16,22.92,59,23,58.86,23Zm-.55-.18c-.09.09-.46.14-.51.24a2.51,2.51,0,0,0-1.31.17C56.6,23,57.48,23,58.31,22.82Z" style="fill:#eee;fill-rule:evenodd"/><path d="M64,40.42c.95-.1-.46,0-1.07,0a6.4,6.4,0,0,0-2,.4C61.76,40.68,63.1,40.48,64,40.42ZM49.44,48.05a20.05,20.05,0,0,1-1.74,2.66A20.51,20.51,0,0,1,49.44,48.05Zm1.27-1.56c-.63.95-1.12,1.12,0,0Zm-4.79,9.22c0-.1,0-.11.09-.1C46.32,53.91,46.33,55.66,45.92,55.71Zm0,.76c.13.28-.27,1.42-.1,1.65C45.55,58.48,45.85,56.6,45.9,56.47Zm.68,6.69c-.27,0-.22-1-.34-1.44C46.28,61.19,46.41,63,46.58,63.16ZM72,43c-1.06-.25-1.37-.63,0,0Zm3.31,1.9c-1.12-.56-1.2-.91,0,0ZM77.77,49c-.8-.55-1.74-2-3.48-3.12A15.09,15.09,0,0,1,77.77,49Zm-28,16.16a.26.26,0,0,0,.26,0l.2.54C49.88,65.73,50,65.36,49.72,65.15Zm.86.08c.23,0,.36.72.6.94C50.82,66.1,50.84,65.69,50.58,65.23ZM60.38,74c0,.13-.32-.07-.45-.09.07-.09.23-.08.26-.22C60.45,73.78,60.3,73.89,60.38,74Zm-.62-.15a.55.55,0,0,0-.24-.15c0-.18.21-.06.25-.17C59.9,73.6,59.92,73.77,59.76,73.81ZM54,70.07c.22.07.61.38,1,.52-.16,0-.33-.09-.46,0C54.31,70.29,54.05,70.31,54,70.07ZM60.75,74a.24.24,0,0,0,.13-.15c.1.3,1.24-.06.92.41C61.56,73.91,61,74.26,60.75,74Zm-5.91-3.22a1.18,1.18,0,0,1,.55.33C55.25,71.18,54.88,70.89,54.84,70.77Zm3,1.67c-.31-.13,0-.3.06-.46A.26.26,0,0,1,57.81,72.44Zm5.91,1.26c.16,0,.87.08.93-.13,0,.13.15.1.37,0,.06.16-.17.13-.17.24C64.52,73.7,63.8,74.07,63.72,73.7Zm-.64.08c-.09,0,0-.13-.16-.15.1-.1.52,0,.63-.12.24.14-.29.28-.46.15Zm2.12,0V73.6c.15,0,.42-.09.35.1C65.38,73.7,65.36,73.78,65.2,73.78Zm1.4-.49c.19,0-.33.41-.47.31S66.49,73.41,66.6,73.29Zm-.32.11c-.07,0-.09,0-.09-.05-.13.12-.15.43-.4.28,0-.16.36-.08.22-.31C66.18,73.27,66.27,73.29,66.28,73.4Zm1.5-.21c-.15-.06-.33.16-.66.14.22-.25.55-.28.66-.51C68,72.84,67.83,73.11,67.78,73.19ZM72,70c-.1.09-.3-.2-.08-.24,0,0,0,.09,0,.14.35-.12-.06-.26.2-.37,0,.3.16-.12.39-.23A3,3,0,0,1,72,70Zm9.56-14.63A14,14,0,0,1,82,59.8a15.45,15.45,0,0,0-.54-4.21c-.12,0,.09.44.1.63a17.47,17.47,0,0,0-7.09-10.54c-.29-.17-.27,0-.39,0a17.93,17.93,0,0,0-1.9-1.09c.24-.22-.14-.4-.29-.6s0,.29-.29.12c0,.13.18.23.42.34a18,18,0,0,0-4.92-1.36,17.07,17.07,0,0,0-5.85.22c0,.13-.6.11-.46.3-1.6-.08-2.78.9-4.24,1.52.29.05-.34.17-.52.52-.22.14-.13,0-.15-.05A16.46,16.46,0,0,0,50,52a14.77,14.77,0,0,0-1.58,7.07q-.06.33-.09.57a5.52,5.52,0,0,0,0,.72,5.59,5.59,0,0,0,.25,1.49,8.82,8.82,0,0,0,1.88,4.95c-.08.08-.14,0-.2-.12A8,8,0,0,0,52,69.33c.14.17,0-.19.24-.18s.32.55.45.5c.12.46-.35-.43-.42-.16a3.45,3.45,0,0,0,1.4,1.33,11.2,11.2,0,0,0,3.66,2.62,19.23,19.23,0,0,0,3.76,1.13c.2-.12-.36-.22,0-.2.14.06.18,0,.2-.07.32.13-.08.16.12.34a9.48,9.48,0,0,0,3.78-.14c-.2.24.16,0,.28.11a2.77,2.77,0,0,1,1.13-.52c0,.2-.55.21-.77.38a5.44,5.44,0,0,0,3.44-1.25c-.15-.21-.47.26-.54,0a2.83,2.83,0,0,1,1.46-.72c0,.07-.13.11-.11.18,0-.1.82-.5.67-.78.44,0,.69-.29.58-.66.22,0,.51-.22.68-.13,0-.1-.09-.11.11-.28-.42-.06-.56.13-1.1.53-.08.18.09.07.14.26-.34.13-.16-.16-.5-.08-.55.31-.46.55-1.1.75,0-.43.73-.63,1.11-.89.08-.14.37-.52.35-.53,0-.17.17,0,.15.11.6-.45.46-.69.42-.94.21-.08.3,0,.32.2.43-.49,1.31-1,1-1.61.08,0,.15,0,.24-.07-.1-.28.47-.38.26-.78.38,0,.5-.59.6-.9l.24.18a4.29,4.29,0,0,0,.41-1.13c-.33.06-.22.66-.51,1a18.81,18.81,0,0,0,.65-3.26,5.54,5.54,0,0,1-.25,2.15c.22-.07.07-.37.31-.39a3.78,3.78,0,0,1,.3-1.7c-.21-.31,0-.9-.17-1.5.18-.19.09.22.19.25s-.1-.35.18-.23c-.06.3,0,.3-.21.35.25.08,0,.19.24.28,0,.15-.12.1-.21.08.15.09.34.18.13.39.35.1.29-.59.13-.67a1.11,1.11,0,0,0,.09-1c0-.12.17-.1.31-.08-.16,0,.26-.45.43-.31.27-.49.15-.69.37-1.14.14.29.08-.08.29.2.17-.07.22-.36.33-.54s.23.31.4.39c0-.4.26.15.2-.45.14.15.21.44.3,0,.23,0,.11.36.28.39s.28-.25.49-.25.13.17.3.1a9.42,9.42,0,0,1,.37,6.23,15.78,15.78,0,0,1-7.24,9.54A16.33,16.33,0,0,1,64,78a18,18,0,0,1-11.8-4.16,18.31,18.31,0,0,1-6.68-12.49c0-.66-.12-1.07-.1-2,0-.54,0-.9,0-1.6a19.78,19.78,0,0,1,.78-4.13,17.56,17.56,0,0,1,3.92-6.84c1.58-1.65-.18.35-.47.7a19.29,19.29,0,0,0-3.3,6.26,17.75,17.75,0,0,0-.72,3.53,10.1,10.1,0,0,0-.08,1.63v.93c0,.3.06.6.09.92,0-.36,0-.57,0-1.32,0-.35,0-.72,0-1,0,3.86,1.31,9.08,4,12.29-.23,0-.31-.29-.62-.68a14.4,14.4,0,0,0,3.08,3.53c-.2-.52-.92-.83-1.55-1.68-.12-.14-.31-.31-.25-.39a3.44,3.44,0,0,0,.3.35c2.68,2.69,6.21,4.8,9.56,5.24a24.22,24.22,0,0,1-7.36-3.46c.08,0,.17,0,.07-.09a18.71,18.71,0,0,1-4.61-5.56,18.9,18.9,0,0,0,6.64,6.72,22.34,22.34,0,0,1-4-3.52c-.12-.21-.19-.12-.27-.07a36.32,36.32,0,0,1-2.22-3.68A18.17,18.17,0,0,1,60.31,41.82c.49-.14,1-.19,1.68-.32a9.61,9.61,0,0,1,1.7,0c.42,0,.56-.07,1.22-.09l.88,0a4.13,4.13,0,0,1,1.88.39c.47,0,1.38.3.92.23-.87-.09-2-.25-2.62-.29l-1-.07a8.79,8.79,0,0,0-1.2,0A18,18,0,0,0,49.93,49.4C52.58,46,56.45,43,60.41,42.23a20.14,20.14,0,0,1,2.91-.44c.56,0,.87-.06,1.6,0l1.12.09a19.3,19.3,0,0,1,10.48,4.52A16,16,0,0,1,82,56.23,5,5,0,0,1,81.59,55.32Zm-35.66,7.6a3.17,3.17,0,0,0,.45,1.57C46.11,64,45.78,61.57,45.93,62.92Zm2.78,6.85a22.25,22.25,0,0,0-1.57-3A19.54,19.54,0,0,0,48.71,69.77Zm7.22,5.46a6.33,6.33,0,0,0,.68.36c-.1-.1-1.43-1-1.64-.88A5.42,5.42,0,0,0,55.93,75.23ZM73,45c.2-.14-.62-.5-.71-.44Zm-.94,25.39c.1.15.27.09.41.15l.32-.25c-.1-.16.13-.31.24-.48.1.09.27.08.23.27,0-.26.06-.6-.18-.57.2,0,.1-.17.16-.3-.11,0-.7.63-.21.35C72.54,69.83,72.48,70.14,72.05,70.38Zm2.48-2.84c-.2-.59.9-1.58.4-1.89-.08.33-.06.28-.3.49.34.16-.07.28.06.48-.06.08-.13,0-.19,0-.07.25.06.31-.26.55.18.25-.26.45-.35.79l.09.08s.07-.06.1,0c.1-.2,0-.34.17-.56C74.34,67.59,74.43,67.39,74.53,67.54Zm-1,.38c-.18.28-.65.8-.42.86C73.3,68.52,73.6,68.18,73.57,67.92Zm.48-.85c-.14.08-.41.48-.28.63C73.82,67.52,74.19,67.24,74.05,67.07Zm1.37-3.17c.13-.28-.32-.32-.22-.09-.07,0-.14,0-.16.09C75.2,64,75.26,63.82,75.42,63.9ZM75.08,65c0-.08.09-.15.17-.08.19-.38,0-.58.15-.95-.14,0-.27,0-.35.09.13.18.24.49-.07.58a.25.25,0,0,1,.16.23C75.08,64.83,75,64.94,75.08,65ZM47.54,51c-.21,1.1-.9,2.17-1.15,3.34C46.29,53.82,47.2,52,47.54,51Zm18.14,22.3c.26.29-.45.1-.75.22.06-.06.19-.07.17-.19C65.28,73.39,65.63,73.56,65.68,73.33Zm2.66-.65c.23,0,.51-.46.8-.2-.37.17-.52.24-.56.44a.43.43,0,0,0-.44,0c.06-.1.19-.17.18-.29S68.38,72.67,68.34,72.68Zm-.23-.19c0,.08-.11.12-.11.21-.15-.1-.19-.07-.41,0C67.58,72.51,67.9,72.66,68.11,72.49Z" style="fill:#eee;fill-rule:evenodd"/></svg>