<svg xmlns="http://www.w3.org/2000/svg" width="500" height="500" viewBox="0 0 500 500"><polygon points="190 227.5 190 252.55 272.5 302.5 355 252.55 355 227.5 272.5 277.45 190 227.5" style="fill:#eee"/><path d="M250,0C111.93,0,0,111.93,0,250S111.93,500,250,500,500,388.07,500,250,388.07,0,250,0ZM145,332.5h-7.5A22.47,22.47,0,0,1,115,310V185.05c0-8,4.5-16.35,11.4-20.1L235,122.5,343.6,165c6.15,3.45,10.5,10.5,11.4,17.55H310l-75-30-90,36ZM385,355a22.47,22.47,0,0,1-22.5,22.5h-180A22.47,22.47,0,0,1,160,355V220a22.47,22.47,0,0,1,22.5-22.5h180A22.47,22.47,0,0,1,385,220Z" style="fill:#eee"/></svg>