<svg xmlns="http://www.w3.org/2000/svg" width="81.45" height="90" viewBox="0 0 81.45 90"><path d="M37.37,8.78c-1,1.24.54-.55,1.23-1.34a26.2,26.2,0,0,0,2.16-2.66C39.81,5.86,38.32,7.6,37.37,8.78Zm13.08,7.1A34.32,34.32,0,0,1,54,20Zm-2.28-2.55c1.38,1.35,1.71,2.07,0,0ZM60,26.8c-.12-.12-.11-.15-.09-.18C57.88,24.46,60.1,26.41,60,26.8Zm.87.85c.39.21,1.41,1.7,1.8,1.91C62.86,30.05,61,27.83,60.86,27.65Zm8.23,8.59c-.27,0-1.24-1.35-1.8-1.91C66.76,33.55,68.75,36,69.09,36.24ZM27,19.25c1.15-1.56,1.81-2,0,0Zm-4.48,5.18c1.34-1.8,1.81-2,0,0ZM16.1,30.05c1.06-1.53,3.39-3.88,5.89-6.89C20.89,24.62,17.92,27.89,16.1,30.05Zm58.12,8.67c.13.09.23.09.29,0l.79.92C75,39.69,74.72,39.09,74.22,38.72Zm1,.16c.33.08,1.2,1.28,1.7,1.72C76.45,40.4,76.09,39.68,75.27,38.88ZM61,46.16c0-.12.71,0,1,0-.09.1-.44.13-.41.26C61,46.34,61.25,46.2,61,46.16Zm1.41,0a3,3,0,0,0,.6,0c.15.15-.4.11-.4.21C62.29,46.33,62.12,46.19,62.44,46.11Zm15.3,0c-.45.12-1.55.13-2.41.27.31-.08.7-.14.8-.27A12,12,0,0,1,77.74,46.16Zm-17.51.05c-.11,0-.22.09-.21.16-.36-.23-2.7.33-2.21-.16C58.49,46.48,59.61,46,60.23,46.21Zm15.1,0a5.19,5.19,0,0,1-1.41.11A3.57,3.57,0,0,1,75.33,46.21Zm-7.65.33c.76,0,.25.25.4.37C67.47,46.9,67.43,46.61,67.68,46.54Zm-14.1.37a5.43,5.43,0,0,0-2,.16,1.83,1.83,0,0,0-1,0c-.15-.15.4-.11.4-.22C52,47,53.3,46.58,53.58,46.91ZM55,46.8c.22,0,.14.11.4.11-.24.11-1.21,0-1.41.16-.53-.12.57-.26,1-.16Zm-4.83.06V47c-.36,0-1,0-.81-.11C49.71,46.92,49.78,46.85,50.16,46.86Zm-3.43.32c-.42-.07.92-.32,1.21-.22C47.91,47.13,47,47.08,46.73,47.18Zm.81-.06c.17,0,.19,0,.2.06.32-.08.44-.36,1-.22,0,.14-.86.06-.61.27C47.74,47.25,47.51,47.22,47.54,47.12Zm-3.63,0c.33.09.85,0,1.62,0-.63.2-1.43.15-1.82.32C43.13,47.32,43.77,47.13,43.91,47.07ZM30.83,48.14c.35,0,.35.3-.21.22,0,0,.21-.06.21-.11-.92-.1-.28.21-1,.16.5-.21-.53,0-1.21,0C29.38,48.22,30.18,48.2,30.83,48.14ZM7.23,41c-1.27,1.27-4,4.65-5.7,6.25l5.28-6.08c-.11-.06-.58.63-.84.88L22.16,23.3c.39-.51.11-.4.23-.59l2.77-3.2c.06.35.59-.27.94-.51.39-.39-.28-.06.1-.45-.11-.05-.42.31-.74.69C29,15,34.26,8.92,39.32,3c0-.18.81-.89.54-.87A24.62,24.62,0,0,0,41.94,0H39.51c1.25,1.44,2.6,2.79,3.9,4.4-.16-.44.46.58,1,1,.34.39.13.21,0,.22,7.62,8.68,15.67,17.87,21.16,23.77a42.3,42.3,0,0,0,3.74,4.22,94.24,94.24,0,0,0,7.36,8c0,.11-.18,0-.34-.24,1,1.29,2.86,3.39,4.26,4.84.3.33-.07-.29.2-.18l.22.24c.1-.23.22-.5.35-.77-.44,0-1,0-1.09.05-.91-.18,1.16,0,.81-.22a20.73,20.73,0,0,0-4,.16c-6.1-.19-13.35.28-17.92.33-.36.14.89.1.2.16-.34,0-.38,0-.4.1-.75,0,.08-.16-.41-.26-3.84.17-5.6.15-8.25.42.46-.2-.35,0-.61-.1a10.54,10.54,0,0,1-2.61.37c0-.18,1.27-.11,1.81-.27a48.84,48.84,0,0,0-8.26.49c.2.22,1.23-.08,1.21.16a15.94,15.94,0,0,1-3.82.16c0-.06.4,0,.4-.11-.06.09-2.24.08-2.22.38-1-.16-1.78-.06-2,.26a7.33,7.33,0,0,1-1.61-.21c-.23,0,0,.13-.61.16a9.13,9.13,0,0,0,3,.11c.38-.11-.12-.1,0-.27.88,0,.17.19,1,.27,1.57-.06,1.61-.24,3.22-.22-.42.38-2.26.26-3.42.32-.32.1-1.45.26-1.41.27-.3.12-.42,0-.2-.16-1.9.07-1.93.32-2.22.54-.58-.06-.66-.17-.4-.32-1.63.14-4.23,0-4.63.58a1.47,1.47,0,0,0-.6-.1c-.34.26-1.62-.06-2,.32a10,10,0,0,0-3,.11v-.27c-1.2,0-2.14.18-3.22.27.64.24,1.9-.14,3-.11-3.06.43-5.88.61-9.26.91,2-.32,3.82-.41,6-.64-.48-.14-1,.11-1.41-.06a24.15,24.15,0,0,1-4.83.38A28.93,28.93,0,0,1,7.47,50c-.71-.1.59-.12.6-.21s-1,.16-.8-.11c.93,0,.89-.07,1.2.11,0-.24.56,0,.61-.27.43,0,.38.08.4.16.14-.15.22-.32,1-.21-.06-.31-1.9-.11-2,0a15.63,15.63,0,0,0-3.22.11c-.44,0-.43-.14-.4-.27-.12.15-1.65-.15-1.21-.32-1.29-.2-1.56-.1-2.62-.27.62-.14-.17-.07.41-.27A4.24,4.24,0,0,0,.22,48.2C.07,48,.87,48,1,47.82c-.86,0,.29-.24-1-.16.3-.13.93-.21,0-.27-.15-.2.77-.11.8-.27s-.57-.24-.6-.42.37-.12.2-.27a112.7,112.7,0,0,1,12.89-1.5c7.42-.5,15.43-1,23.56-1.34,4.91-.21,10.59-.37,15.7-.48l28.88-.62-2.6,5.7-12.57-14C60.8,28,54.1,20.64,48.67,14.23c-2.49-2.93.49.42,1,1C55.3,21.57,60,26.94,65.74,33.28c-.6-.8-1.88-2.27-2.77-3.2,4.88,5.11,10.6,11.76,15.49,17.22-.3-.11-.52-.53-1.14-1.15.55.71,1.09,1.34,1.63,2l2.5-5.46c-1.75,0-3.47.13-5.72.09.89.24,2.18,0,4,.06.32,0,.77,0,.8.05h-.8c-6.76.28-13.85.28-19.94.59,4.48,0,9.66,0,14.9-.32-.12,0-.24.09,0,.1l6.73-.1-2.14,4.68-4.25-4.74,4.33,4.67,2.06-4.51-11,.27c2.94.13,6.12-.11,9.87,0,.43,0,.39-.08.4-.16l.69,0-2,4.36C78,45.77,76.31,44,74.78,42.23L38.39,1h4.67l-2,2.26-2,2.28c-.62.75-1.4,1.46-2.05,2.21-1.66,1.92-3.24,4.19-4.79,5.45-.45.56-1.6,1.82-1.1,1.18,2-2.53,4-4.68,5.63-6.58l6-7H38.63L52.19,16.25C47.8,10.91,42.88,5.59,38.66.74h4.13L40.83,3l-6.9,7.88C24.62,21.13,15.73,32.23,6.17,42.49A17.61,17.61,0,0,1,7.23,41Zm61.06-4.88a13.27,13.27,0,0,0,1.92,2.06C69.53,37.5,66.78,34.33,68.29,36.13Zm8.56,9.64A35.09,35.09,0,0,0,73,41.39C74.35,43,75.46,44.1,76.85,45.77Zm-8.57-2.23H66.87a16.27,16.27,0,0,0,3.42-.06A18.88,18.88,0,0,0,68.28,43.54ZM24,20.92c0,.27,1.09-1.06,1.1-1.19Zm7.42,26.9c0-.16-.43-.21-.6-.32h-1c-.05.17-.72.17-1.21.21-.06-.12-.39-.22,0-.32-.43.17-1.09.36-.6.48-.4-.11-.46.06-.81.11.25.05,2.42,0,1-.11C29.59,48,30.21,47.75,31.43,47.82Zm-9.67.32c-.9.49-4.79.14-4.83.65a4.58,4.58,0,0,1,1.61,0c-.13-.34.73-.07,1-.27.27,0,.18.09.4.1a4.18,4.18,0,0,1,1.61-.1c.23-.26,1.39-.05,2.22-.22v-.1c-.12,0-.24,0-.2-.06a14.06,14.06,0,0,1-1.41.22C22.16,48.25,21.62,48.29,21.76,48.14Zm2.42.43c.9,0,2.79-.08,2.42-.27A19.09,19.09,0,0,0,24.18,48.57Zm-2.62.16c.4.07,1.75,0,1.82-.16C22.92,48.66,21.69,48.55,21.56,48.73Zm-9.66.32c-.86,0-.55.37,0,.22,0,.06.06.12.4.1C12.35,49.22,11.84,49.21,11.9,49.05Zm3.22-.1c-.25,0-.48,0-.4-.11-1.19,0-1.54.2-2.62.21.07.13.2.23.6.27a2.34,2.34,0,0,1,1.61-.16c0-.1.14-.18.41-.21C14.72,49,15.07,49,15.12,49Zm39.29-28.5a59.6,59.6,0,0,1,4.08,4.46C57.78,24.41,55.63,21.63,54.41,20.45ZM49,47.23c-.58-.27,1.09-.07,1.81-.16-.13.06-.46.06-.4.16C49.92,47.2,49.11,47,49,47.23Zm-6.65.16c-.53,0-1.55.26-2,0,1,0,1.37,0,1.61-.22a2,2,0,0,0,1,.11c-.2.07-.55.11-.61.22C42.08,47.44,42.19,47.39,42.3,47.39Zm.41.22c.07-.07.35-.09.4-.16a1.82,1.82,0,0,0,1,0C44,47.7,43.33,47.51,42.71,47.61Z" style="fill:#eee;fill-rule:evenodd"/><path d="M69.67,56.1c-1.9.06.91.06,2.15.06h2.32l-4-3.95a13.26,13.26,0,0,0,.1,1.74V52.2l3.85,3.85Zm.73,25.79c0,1.41.19,4,.09,5.61,1.33-1.34,2.49-2.5,3.65-3.65a8,8,0,0,1-.85-.09h.85L70.4,87.5Zm-.05-4.06c.15,2.29-.07,3.19,0,0Zm-7.81,6c.2,0,.23,0,.24,0C66.28,83.75,62.81,84.15,62.54,83.81Zm-1.43.11c-.49.16-2.62,0-3.11.1C57.41,83.85,60.83,83.9,61.11,83.92Zm-9,1.45a6.13,6.13,0,0,1,.1,2.13l-3.09-3.09c.37,0,.72,0,1,0,.55.06-.11,0-1,0l3,3A18.44,18.44,0,0,0,52.13,85.37Zm.1-30.23c2.28-.16,3.18.06,0,0Zm-8.13,0c2.66-.16,3.2.06,0,0ZM34.07,54c2.19-.2,6.11,0,10.75-.05C42.66,54,37.42,53.93,34.07,54ZM49.88,79.15c0-.18-.12-.25-.21-.23V77.48C49.93,77.68,49.74,78.43,49.88,79.15Zm-.69-1A20.17,20.17,0,0,1,49,75.33C49.3,75.91,49.09,76.84,49.19,78.2ZM32.53,75.38c-.12,0,0-.85-.05-1.2.1.1.13.52.26.48C32.71,75.42,32.56,75.11,32.53,75.38Zm-.05-1.68a5.55,5.55,0,0,0,.05-.71c.14-.18.11.47.21.48C32.69,73.88,32.56,74.08,32.48,73.7Zm11.81-6c-.55.12-1.85.13-2.87.27a2.73,2.73,0,0,0,.95-.27A17.12,17.12,0,0,1,44.29,67.75ZM32.58,76.33c.05.13.09.25.16.24-.23.43.32,3.21-.16,2.63C32.85,78.39,32.39,77.07,32.58,76.33Zm8.84-8.53a7.25,7.25,0,0,1-1.67.11A5,5,0,0,1,41.42,67.8Zm-9.08.32c.91,0,.3.26.48.38a1.12,1.12,0,0,1-.51-.09l.88-.88c-.09.18-.22.16-.27,0-.2.2-.4.39-.61.61Zm.94,16.1a7.68,7.68,0,0,0,.16,2.39,2,2,0,0,0-.08.89l.07,1-1.13.08-.3,0c-.11-.1.13-.11.3-.14l1.07-.18-.13-.76c0-.1,0-.18-.07-.18C33.33,86.11,32.94,84.55,33.28,84.22Zm-.11-1.68c0-.26.11-.16.11-.47.11.29,0,1.43.16,1.67-.12.63-.26-.68-.16-1.2Zm-1.64,5.88v.16c-.43,0-1.2,0-1-.11C31,88.48,31.07,88.4,31.53,88.42Zm-4.07.32c-.5-.07,1.09-.32,1.44-.22C28.86,88.7,27.83,88.64,27.46,88.74Zm1-.06c.2,0,.22,0,.24.06.38-.08.52-.36,1.19-.22,0,.14-1,.06-.71.27C28.66,88.81,28.39,88.78,28.42,88.68Zm-4.3-.05c.38.09,1,0,1.91,0-.75.2-1.69.15-2.15.32C23.19,88.88,24,88.69,24.12,88.63ZM8.59,89.7c.42,0,.43.3-.24.22.05,0,.24-.06.24-.11-1.08-.1-.33.21-1.2.16.27-.1.18-.1-.08-.09L5.06,90l-.13-2.5a11.25,11.25,0,0,1,0-1.35c.07.45.11.91.14,1.35l.16,2.4,2.12-.12Zm8.75-35.26c-2.12-.13-7.25.05-10-.21h9.56c0-.12-1,0-1.44,0l29.39-.06c.76,0,.45-.18.72-.21h5c-.26.27.71.27,1.2.37.65,0-.17-.25.48-.21,0-.12-.61-.12-1.2-.11l23.11-.15L72.53,52.2c0,.72,0,1.47,0,2.22.11.16,0,1.42.16,1.19-.38,3.53,0,6.79-.1,10.52.17-.52,0,.88.16,1.67,0,.61,0,.29-.11.24,0,6.51.08,13.21.12,19.46l1.37-1.37c-6.92.06-13.28.15-18.29.3a60.91,60.91,0,0,0-6.69.06h0l1,1c0-4.26.08-9-.32-12.89.09-.08.1.19.11.48.06-1.92.05-5.19,0-7.56l0-.78-.72,0h-.08c-.53,0,.31.13,0,.26a9.63,9.63,0,0,0-1.67.06c-1.08-.18,1.37,0,1-.22a29.13,29.13,0,0,0-4.78.16C40,67,36,67,32.31,67.12h-.42v.4c.1,3.75.19,7.34.25,10,.15.42.11-1.06.16-.24,0,.4,0,.45.11.48,0,.88-.16-.11-.27.47.17,4.29.16,6.39.38,9.26l0,.2-.25,0-.54,0c.55-.2-.41,0-.71-.1a14.85,14.85,0,0,1-3.11.37c-.05-.18,1.52-.11,2.15-.27a68.37,68.37,0,0,0-9.79.49c.23.22,1.45-.08,1.43.16a22.46,22.46,0,0,1-4.54.16c.06-.06.47,0,.48-.11-.07.09-2.65.08-2.63.38a3.27,3.27,0,0,0-2.39.26,10.18,10.18,0,0,1-1.91-.21c-.27,0,.06.13-.72.16a12.84,12.84,0,0,0,3.59.11c.44-.11-.15-.1,0-.27,1,0,.19.19,1.19.27,1.86-.06,1.9-.23,3.82-.22-.5.38-2.68.26-4.06.32-.37.1-1.71.26-1.67.27-.35.11-.5-.05-.24-.16-2.25.07-2.29.32-2.63.54-.69-.06-.79-.17-.48-.32-.66,0-1.45.06-2.23.08l-2.12.06L5.13,87.5c0-1.51-.11-3-.51-3.26a1.84,1.84,0,0,0,.11-.72c-.27-.4,0-1.92-.32-2.39a14,14,0,0,0-.11-3.58h.27c-.06-1.43-.18-2.54-.27-3.83-.24.76.14,2.25.11,3.59-.43-3.63-.62-7-.91-11,.32,2.43.4,4.54.64,7.17.14-.57-.12-1.2.05-1.68a33.74,33.74,0,0,1-.37-5.73,37.92,37.92,0,0,1-.54-5c.11-.83.13.7.22.72s-.16-1.13.1-1c0,1.12.08,1.06-.1,1.44.24,0,0,.65.27.71,0,.51-.08.46-.17.48.15.17.33.26.22,1.2.31-.07.11-2.25,0-2.39a22.09,22.09,0,0,0-.11-3.83c0-.52.13-.51.27-.47-.15-.15.15-2,.32-1.44.2-1.53.1-1.85.27-3.1.14.73.06-.21.26.48a5.76,5.76,0,0,0,.27-1.44c.24-.18.22.77.38,1,0-1,.24.34.16-1.2.13.36.21,1.11.26,0,.21-.18.12.92.27,1s.24-.69.43-.72.12.44.27.24C7.49,56.94,8,62.33,8.32,68c.32,6.35.66,13,1,19.51-.66-.67-1.33-1.33-2-2l8.45-.34,16.54-.44L29.52,87.5c0-.74,0-1.42,0-2.09-.14-6.88-.26-12.75-.36-17.88l-.06-3.13,3.25-.06,16.83-.28L52.56,64l0,3.53c.07,5.87.15,12.22.25,20-1-1-2.07-2.08-3.72-3.72l1.93,0,23.07-.28-4,4V79c0-4.57.1.75.11,1.67,0,2.4,0,4.69.06,6.8,1.38-1.39,2.61-2.62,3.84-3.84l-21.87.26c1.18.07,3.49.06,5,0l-8.14.22L52.5,87.5c-.07-6.48-.14-13.27-.21-19.34a8.15,8.15,0,0,1,.11,1.92c0-.89.05-1.73.05-2.55l0-3.33-3.29,0c-2.23,0-4.37.14-7.24.1,1.05.24,2.58,0,4.77.06.38,0,.92,0,1,.05h-1l-14.36.33-2.85.06.07,2.71c.09,3.17.18,6.23.27,9.28,0-2.88,0-6-.05-9.28l0-2.53,2.58,0c2.72,0,5.55-.11,8.39-.27-.15,0-.29.09,0,.1l8.44-.11,2.8,0,0,2.87c0,2.56.07,4.84.1,7.08-.07-2.37-.13-4.69-.2-7.08l-.08-2.8-2.66.06-13.46.28c3.49.13,7.26-.11,11.71,0,.51,0,.46-.08.48-.16l1.27,0,2.7.1-.08,2.52c-.08,2.71,0,5.43,0,8,0,4.1.05,8.12.08,11.93l-2.7-2.7,25-.21L71.23,87.5c-.06-10-.12-20.34-.19-31.89,0-1,0-2,0-3.41l3.09,3.1H74c-1.16,0-2.41-.11-3.59-.11-3,0-6.26.3-8.6,0-.86,0-2.88,0-1.91,0,3.81-.16,7.32,0,10.27-.06l4,0-2.8-2.8c0,11,.09,21.53.13,31.37.21-9.46-.13-19.44,0-28,0-1.06,0-2.19,0-3.41l2.71,2.71-9,0c-16.45-.31-33.31.24-49.94-.27C16.13,54.46,16.89,54.49,17.34,54.44ZM52.67,86.08a18.46,18.46,0,0,0-.11-3.34C52.63,83.9,52.63,88.87,52.67,86.08Zm-.16-15.29a48.69,48.69,0,0,0,.05,6.93C52.54,75.21,52.53,73.38,52.51,70.79ZM33.06,65.13H29.9v3.32a5.64,5.64,0,0,0,.06-.92L30,65.12l2.3.06a18.07,18.07,0,0,0,3.14-.11C34.22,65.07,33.57,65.08,33.06,65.13ZM48.4,54c-.24.18,1.8.13,1.91,0ZM9.31,89.38c0-.16-.51-.21-.72-.32H7.39s0,0-.08.07l-.76.3L5.68,87.5a6.75,6.75,0,0,1-.15-1.35c.13-.08.22-.47.32,0-.16-.51-.35-1.3-.48-.72.11-.47-.06-.54-.1-1,0,.29,0,2.86.1,1.19a15.54,15.54,0,0,0,0,1.83l.12,2,1.81-.1A15.85,15.85,0,0,1,9.31,89.38ZM5.1,78C4.62,77,5,72.34,4.46,72.29a6.78,6.78,0,0,1,0,1.91c.33-.16.07.86.27,1.2,0,.31-.09.22-.11.48a5.75,5.75,0,0,1,.11,1.91c.26.27,0,1.64.21,2.63h.11c0-.15,0-.29,0-.24,0-.67-.19-.87-.21-1.68C5,78.5,5,77.85,5.1,78Zm-.42,2.86c0,1.07.07,3.31.26,2.87A24.71,24.71,0,0,0,4.68,80.89Zm-.16-3.1a5.34,5.34,0,0,0,.16,2.15C4.58,79.39,4.7,77.93,4.52,77.79ZM4.19,66.32c0-1-.36-.65-.21,0-.07,0-.13.07-.11.48C4,66.86,4,66.26,4.19,66.32Zm.11,3.82c0-.29,0-.56.11-.48,0-1.4-.2-1.82-.22-3.1-.12.08-.23.24-.26.71a3.26,3.26,0,0,1,.16,1.92c.1,0,.18.15.21.47A.66.66,0,0,0,4.3,70.14ZM72.58,83.76c-2.2.28-4.76.07-7.17.16C66.4,83.71,70.57,83.9,72.58,83.76Zm-42.49,5c-.68-.27,1.3-.07,2.15-.16-.15.06-.55.06-.48.16C31.25,88.76,30.28,88.59,30.09,88.79ZM22.21,89c-.64,0-1.84.26-2.39,0a4.44,4.44,0,0,0,1.91-.22,2.72,2.72,0,0,0,1.19.11c-.23.07-.64.11-.71.22C21.94,89,22.07,89,22.21,89Zm.48.22c.08-.07.42-.09.47-.16a2.55,2.55,0,0,0,1.2,0C24.23,89.26,23.43,89.07,22.69,89.17Z" style="fill:#eee;fill-rule:evenodd"/></svg>