<svg xmlns="http://www.w3.org/2000/svg" width="227.71" height="227.71" viewBox="0 0 227.71 227.71"><path d="M113.85,0A113.86,113.86,0,1,1,0,113.86,114,114,0,0,1,113.85,0Zm102.6,116.36.1-.85-.07,0L172.33,84.22l-5.37,4-17.9-18.35,3.58,21.48L124.9,64.06l4.48,79.64-26.85,62.65,43.4-44.3-11.18-48.19,17.89,21.34L145.93,99l55,49.22L172.78,94.93l41.9,36.6ZM169.29,73.81,216.55,112a102.7,102.7,0,0,0-205.4,0l.22,6.53L61.12,75.37,78.28,97l45.24-47.08L138.61,66l8.84-8.84,17.68,20.29ZM52.8,176.77l54.6-83.72L68.92,139.33l5.2-36.92L59,86.29v20.8L33,143l26.52-24.42ZM80,186,107.4,112,63.72,190.3Z" style="fill:#ffd523"/></svg>