<svg xmlns="http://www.w3.org/2000/svg" width="159.54" height="159.54" viewBox="0 0 159.54 159.54"><path d="M79.78,0A79.77,79.77,0,1,1,0,79.77,79.85,79.85,0,0,1,79.78,0Zm71.88,81.52.06-.59,0,0L120.75,59,117,61.8,104.44,49,107,64,87.52,44.88l3.13,55.8L71.84,144.57l30.41-31L94.41,79.77l12.54,15-4.7-25.4,38.57,34.48-19.76-37.3,29.36,25.64Zm-33-29.81,33.1,26.77a72,72,0,1,0-143.9,0L8,83.06,42.83,52.8l12,15.13,31.7-33L97.12,46.24l6.19-6.19L115.7,54.26ZM37,123.85,75.26,65.19l-27,32.43,3.64-25.87L41.37,60.45V75L23.15,100.17,41.74,83.06Zm19,6.44L75.26,78.48,44.65,133.33Z" style="fill:#eee"/></svg>